<?xml version="1.0" encoding="utf-8"?>
<!-- Generator: Adobe Illustrator 24.3.0, SVG Export Plug-In . SVG Version: 6.00 Build 0)  -->
<svg version="1.1" id="Layer_1" xmlns="http://www.w3.org/2000/svg" xmlns:xlink="http://www.w3.org/1999/xlink" x="0px" y="0px"
	 viewBox="0 0 958.6 620" style="enable-background:new 0 0 958.6 620;" xml:space="preserve">
<style type="text/css">
	.st0{opacity:0.15;}
	.st1{fill:#341472;}
	.st2{fill:none;stroke:#341472;stroke-width:5;stroke-linecap:round;stroke-linejoin:round;stroke-miterlimit:10;}
	.st3{fill:#FF675F;}
	.st4{fill:#E04733;}
	.st5{fill:#BC2922;}
	.st6{fill:#00DBB1;}
	.st7{fill:#38F2AF;}
	.st8{fill:#18A3FF;}
	.st9{fill:#5AC4FF;}
	.st10{fill:#0B8ED6;}
	.st11{fill:#F76F8C;}
	.st12{fill:#AC7FFF;}
	.st13{fill:#CAB5FF;}
	.st14{fill:#FF908D;}
	.st15{fill:#6E49CB;}
	.st16{fill:#FC6D26;}
	.st17{fill:#FCA121;}
	.st18{fill:#E58615;}
	.st19{fill:#FFC46C;}
	.st20{fill:#E5DAD1;}
	.st21{fill:#FCF7F2;}
	.st22{fill:#E85929;}
	.st23{fill:#380D75;}
	.st24{fill:#7F6997;}
	.st25{fill:none;stroke:#380D75;stroke-width:5;stroke-linecap:round;stroke-linejoin:round;stroke-miterlimit:10;}
	.st26{opacity:0.25;fill:none;stroke:#341472;stroke-width:5;stroke-linecap:round;stroke-linejoin:round;stroke-miterlimit:10;}
	
		.st27{opacity:0.15;fill:none;stroke:#3C257B;stroke-width:5;stroke-linecap:round;stroke-linejoin:round;stroke-miterlimit:10;stroke-dasharray:12,20;}
	.st28{fill:#F9F7FF;}
	.st29{fill:#E5E0FC;}
	.st30{fill:#AFA3C6;}
	.st31{fill:#978ACE;}
	.st32{fill:#AFAAE5;}
	.st33{fill:#FF9769;}
	.st34{fill:#E64821;}
	.st35{fill:#FD7613;}
	.st36{fill:#FDAA05;}
	.st37{fill:#A686FF;}
	.st38{fill:#968BB2;}
	.st39{fill:#8C6EEA;}
	.st40{fill:#FFE3BD;}
	.st41{fill:#7971AD;}
	.st42{fill:#FA9F21;}
	.st43{fill:none;stroke:#341472;stroke-width:5;stroke-linecap:round;stroke-linejoin:round;}
	.st44{fill:none;stroke:#341472;stroke-width:5;stroke-linecap:round;stroke-linejoin:round;stroke-dasharray:11.9291,19.8819;}
	.st45{fill:none;stroke:#9273F4;stroke-width:5;stroke-linecap:round;stroke-linejoin:round;stroke-miterlimit:10;}
	.st46{fill:none;stroke:#341472;stroke-width:4;stroke-linecap:round;stroke-linejoin:round;stroke-miterlimit:10;}
	.st47{fill:#FFFFFF;}
	.st48{fill:#E24329;}
	.st49{fill:#FCA326;}
</style>
<g class="st0">
	<g>
		<path class="st1" d="M266.1,67h-10c-1.4,0-2.5-1.1-2.5-2.5s1.1-2.5,2.5-2.5h10c1.4,0,2.5,1.1,2.5,2.5S267.4,67,266.1,67z
			 M242.1,67h-10c-1.4,0-2.5-1.1-2.5-2.5s1.1-2.5,2.5-2.5h10c1.4,0,2.5,1.1,2.5,2.5S243.4,67,242.1,67z M218.1,67h-10
			c-1.4,0-2.5-1.1-2.5-2.5s1.1-2.5,2.5-2.5h10c1.4,0,2.5,1.1,2.5,2.5S219.4,67,218.1,67z M194.1,67h-10c-1.4,0-2.5-1.1-2.5-2.5
			s1.1-2.5,2.5-2.5h10c1.4,0,2.5,1.1,2.5,2.5S195.4,67,194.1,67z M170.1,67h-10c-1.4,0-2.5-1.1-2.5-2.5s1.1-2.5,2.5-2.5h10
			c1.4,0,2.5,1.1,2.5,2.5S171.4,67,170.1,67z M146.1,67h-10c-1.4,0-2.5-1.1-2.5-2.5s1.1-2.5,2.5-2.5h10c1.4,0,2.5,1.1,2.5,2.5
			S147.4,67,146.1,67z"/>
	</g>
	<g>
		<path class="st1" d="M263.1,76.1c-0.6,0-1.3-0.2-1.8-0.7c-1-1-1-2.6,0-3.5l7.3-7.3l-7.3-7.3c-1-1-1-2.6,0-3.5c1-1,2.6-1,3.5,0l9,9
			c1,1,1,2.6,0,3.5l-9,9C264.4,75.8,263.8,76.1,263.1,76.1z"/>
	</g>
</g>
<g class="st0">
	<g>
		<path class="st1" d="M552.5,67h-10c-1.4,0-2.5-1.1-2.5-2.5s1.1-2.5,2.5-2.5h10c1.4,0,2.5,1.1,2.5,2.5S553.8,67,552.5,67z
			 M528.5,67h-10c-1.4,0-2.5-1.1-2.5-2.5s1.1-2.5,2.5-2.5h10c1.4,0,2.5,1.1,2.5,2.5S529.8,67,528.5,67z M504.5,67h-10
			c-1.4,0-2.5-1.1-2.5-2.5s1.1-2.5,2.5-2.5h10c1.4,0,2.5,1.1,2.5,2.5S505.8,67,504.5,67z M480.5,67h-10c-1.4,0-2.5-1.1-2.5-2.5
			s1.1-2.5,2.5-2.5h10c1.4,0,2.5,1.1,2.5,2.5S481.8,67,480.5,67z M456.5,67h-10c-1.4,0-2.5-1.1-2.5-2.5s1.1-2.5,2.5-2.5h10
			c1.4,0,2.5,1.1,2.5,2.5S457.8,67,456.5,67z M432.5,67h-10c-1.4,0-2.5-1.1-2.5-2.5s1.1-2.5,2.5-2.5h10c1.4,0,2.5,1.1,2.5,2.5
			S433.8,67,432.5,67z"/>
	</g>
	<g>
		<path class="st1" d="M549.3,76.1c-0.6,0-1.3-0.2-1.8-0.7c-1-1-1-2.6,0-3.5l7.3-7.3l-7.3-7.3c-1-1-1-2.6,0-3.5c1-1,2.6-1,3.5,0l9,9
			c0.5,0.5,0.7,1.1,0.7,1.8s-0.3,1.3-0.7,1.8l-9,9C550.6,75.8,550,76.1,549.3,76.1z"/>
	</g>
</g>
<g class="st0">
	<g>
		<path class="st1" d="M811.8,67h-10c-1.4,0-2.5-1.1-2.5-2.5s1.1-2.5,2.5-2.5h10c1.4,0,2.5,1.1,2.5,2.5S813.2,67,811.8,67z
			 M787.8,67h-10c-1.4,0-2.5-1.1-2.5-2.5s1.1-2.5,2.5-2.5h10c1.4,0,2.5,1.1,2.5,2.5S789.2,67,787.8,67z M763.8,67h-10
			c-1.4,0-2.5-1.1-2.5-2.5s1.1-2.5,2.5-2.5h10c1.4,0,2.5,1.1,2.5,2.5S765.2,67,763.8,67z M739.8,67h-10c-1.4,0-2.5-1.1-2.5-2.5
			s1.1-2.5,2.5-2.5h10c1.4,0,2.5,1.1,2.5,2.5S741.2,67,739.8,67z M715.8,67h-10c-1.4,0-2.5-1.1-2.5-2.5s1.1-2.5,2.5-2.5h10
			c1.4,0,2.5,1.1,2.5,2.5S717.2,67,715.8,67z M691.8,67h-10c-1.4,0-2.5-1.1-2.5-2.5s1.1-2.5,2.5-2.5h10c1.4,0,2.5,1.1,2.5,2.5
			S693.2,67,691.8,67z"/>
	</g>
	<g>
		<path class="st1" d="M808.3,76.1c-0.6,0-1.3-0.2-1.8-0.7c-1-1-1-2.6,0-3.5l7.3-7.3l-7.3-7.3c-1-1-1-2.6,0-3.5c1-1,2.6-1,3.5,0l9,9
			c0.5,0.5,0.7,1.1,0.7,1.8s-0.3,1.3-0.7,1.8l-9,9C809.5,75.8,808.9,76.1,808.3,76.1z"/>
	</g>
</g>
<g class="st0">
	<g>
		<path class="st1" d="M182.8,315.5h-10c-1.4,0-2.5-1.1-2.5-2.5s1.1-2.5,2.5-2.5h10c1.4,0,2.5,1.1,2.5,2.5S184.2,315.5,182.8,315.5z
			 M158.8,315.5h-10c-1.4,0-2.5-1.1-2.5-2.5s1.1-2.5,2.5-2.5h10c1.4,0,2.5,1.1,2.5,2.5S160.2,315.5,158.8,315.5z M134.8,315.5h-10
			c-1.4,0-2.5-1.1-2.5-2.5s1.1-2.5,2.5-2.5h10c1.4,0,2.5,1.1,2.5,2.5S136.2,315.5,134.8,315.5z"/>
	</g>
	<g>
		<path class="st1" d="M129.8,324.5c-0.6,0-1.3-0.2-1.8-0.7l-9-9c-0.5-0.5-0.7-1.1-0.7-1.8s0.3-1.3,0.7-1.8l9-9c1-1,2.6-1,3.5,0
			c1,1,1,2.6,0,3.5l-7.3,7.3l7.3,7.3c1,1,1,2.6,0,3.5C131.1,324.3,130.5,324.5,129.8,324.5z"/>
	</g>
</g>
<g>
	<g>
		<path class="st9" d="M24.1,90.1h75.3c6.8,0,12.3-5.5,12.3-12.3V32H36.4v45.8C36.4,84.6,30.9,90.1,24.1,90.1L24.1,90.1"/>
	</g>
	<g>
		<path class="st16" d="M73.8,75.9l15.6-11.3c0.4-0.3,0.6-0.9,0.4-1.4l-5.4-16.5c-0.2-0.6-1-0.6-1.2,0l-3.6,11h0v0l-11.9,0l-3.6-11
			c-0.2-0.6-1-0.6-1.2,0l-5.4,16.5c-0.2,0.5,0,1.1,0.4,1.4L73.8,75.9"/>
	</g>
	<g>
		<rect x="11.7" y="103.3" class="st12" width="33" height="13"/>
	</g>
	<g>
		<path class="st12" d="M105.2,116.2H88.5v-13h16.7c3.6,0,6.5,2.9,6.5,6.5v0C111.7,113.3,108.8,116.2,105.2,116.2z"/>
	</g>
	<g>
		<polygon class="st29" points="68.2,103.3 68.2,91 55.2,91 55.2,103.3 44.6,103.3 44.6,116.2 91.7,116.2 91.7,103.3 		"/>
	</g>
	<g>
		<path class="st8" d="M98.8,22.8H56.1l-8.4-10.5h-36v65.6c0,6.8,5.5,12.3,12.3,12.3h0c6.8,0,12.3-5.5,12.3-12.3V32h62.4V22.8z"/>
	</g>
	<g>
		<path class="st10" d="M31.3,22.8c-3.1,0-5.5,2.5-5.5,5.5v50.4c0,4.6-2.7,8.6-6.7,10.4c0,0,16,3,17.3-11.3V32h62.4v-9.2H31.3z"/>
	</g>
	<g>
		<path class="st23" d="M24.1,92.6c-8.2,0-14.8-6.7-14.8-14.8V12.2c0-1.4,1.1-2.5,2.5-2.5h36c0.8,0,1.5,0.3,2,0.9l7.7,9.6h41.5
			c1.4,0,2.5,1.1,2.5,2.5s-1.1,2.5-2.5,2.5H56.1c-0.8,0-1.5-0.3-2-0.9l-7.7-9.6H14.2v63.1c0,5.4,4.4,9.8,9.8,9.8
			c1.4,0,2.5,1.1,2.5,2.5S25.4,92.6,24.1,92.6z"/>
	</g>
	<g>
		<path class="st23" d="M99.4,92.6H40.8c-1.4,0-2.5-1.1-2.5-2.5s1.1-2.5,2.5-2.5h58.6c5.4,0,9.8-4.4,9.8-9.8V34.5H38.9v43.3
			c0,8.2-6.7,14.8-14.8,14.8c-1.4,0-2.5-1.1-2.5-2.5s1.1-2.5,2.5-2.5c5.4,0,9.8-4.4,9.8-9.8V32c0-1.4,1.1-2.5,2.5-2.5h75.3
			c1.4,0,2.5,1.1,2.5,2.5v45.8C114.2,86,107.6,92.6,99.4,92.6z"/>
	</g>
	<g>
		<path class="st23" d="M105.2,118.7h-87c-1.4,0-2.5-1.1-2.5-2.5s1.1-2.5,2.5-2.5h87c2.2,0,4-1.8,4-4s-1.8-4-4-4h-37
			c-1.4,0-2.5-1.1-2.5-2.5V91c0-1.4,1.1-2.5,2.5-2.5s2.5,1.1,2.5,2.5v9.7h34.5c5,0,9,4,9,9S110.2,118.7,105.2,118.7z"/>
	</g>
	<g>
		<path class="st23" d="M85.2,118.7c-1.4,0-2.5-1.1-2.5-2.5s1.1-2.5,2.5-2.5c2.2,0,4-1.8,4-4s-1.8-4-4-4c-1.4,0-2.5-1.1-2.5-2.5
			s1.1-2.5,2.5-2.5c5,0,9,4,9,9S90.2,118.7,85.2,118.7z"/>
	</g>
	<g>
		<path class="st23" d="M55.2,105.8h-37c-1.4,0-2.5-1.1-2.5-2.5s1.1-2.5,2.5-2.5h34.5V91c0-1.4,1.1-2.5,2.5-2.5s2.5,1.1,2.5,2.5
			v12.2C57.7,104.6,56.6,105.8,55.2,105.8z"/>
	</g>
	<g>
		<path class="st23" d="M18.2,118.7c-5,0-9-4-9-9s4-9,9-9s9,4,9,9S23.2,118.7,18.2,118.7z M18.2,105.8c-2.2,0-4,1.8-4,4s1.8,4,4,4
			s4-1.8,4-4S20.4,105.8,18.2,105.8z"/>
	</g>
	<g>
		<path class="st23" d="M38.2,118.7c-1.4,0-2.5-1.1-2.5-2.5s1.1-2.5,2.5-2.5c2.2,0,4-1.8,4-4s-1.8-4-4-4c-1.4,0-2.5-1.1-2.5-2.5
			s1.1-2.5,2.5-2.5c5,0,9,4,9,9S43.2,118.7,38.2,118.7z"/>
	</g>
	<g>
		<path class="st23" d="M73.8,78.4c-0.5,0-1-0.2-1.5-0.5L56.7,66.6c-1.3-1-1.9-2.6-1.4-4.2l5.4-16.5c0.4-1.3,1.6-2.1,3-2.1
			c0,0,0,0,0,0c1.3,0,2.5,0.9,2.9,2.1l3,9.3l8.2,0l3-9.3c0.4-1.3,1.6-2.1,2.9-2.1c0,0,0,0,0,0c1.3,0,2.5,0.9,3,2.1l5.4,16.6
			c0.5,1.5,0,3.2-1.4,4.2L75.2,77.9C74.8,78.2,74.3,78.4,73.8,78.4z M60.4,63.1l13.4,9.7l13.4-9.7l-3.3-10.1l-1.8,5.5
			c-0.3,1-1.3,1.7-2.4,1.7l-11.9,0c0,0,0,0,0,0c-1.1,0-2-0.7-2.4-1.7l-1.8-5.5L60.4,63.1z"/>
	</g>
</g>
<g>
	<g>
		<path class="st16" d="M345.2,78.3l14.1-10.2c0.4-0.3,0.5-0.8,0.4-1.2l-4.8-14.9c-0.2-0.5-0.9-0.5-1.1,0l-3.2,9.9h0v0l-10.7,0
			l-3.2-9.9c-0.2-0.5-0.9-0.5-1.1,0l-4.8,14.9c-0.1,0.5,0,1,0.4,1.2L345.2,78.3"/>
	</g>
	<g>
		<path class="st23" d="M301,84.2c-1,0-1.9-0.6-2.3-1.6c-2.3-5.9-3.5-12.1-3.5-18.4c0-27.6,22.4-50,50-50c6.4,0,12.6,1.2,18.4,3.5
			c1.3,0.5,1.9,2,1.4,3.2c-0.5,1.3-2,1.9-3.2,1.4c-5.3-2.1-10.9-3.2-16.6-3.2c-24.8,0-45,20.2-45,45c0,5.7,1.1,11.3,3.2,16.6
			c0.5,1.3-0.1,2.7-1.4,3.2C301.6,84.2,301.3,84.2,301,84.2z"/>
	</g>
	<g>
		<path class="st23" d="M345.2,114.2c-7.7,0-15.1-1.7-21.9-5c-1.2-0.6-1.8-2.1-1.1-3.3c0.6-1.2,2.1-1.8,3.3-1.1
			c6.2,3,12.8,4.5,19.7,4.5c24.8,0,45-20.2,45-45c0-6.4-1.3-12.6-3.9-18.4c-0.6-1.3,0-2.7,1.3-3.3c1.3-0.6,2.7,0,3.3,1.3
			c2.9,6.4,4.4,13.3,4.4,20.4C395.2,91.8,372.7,114.2,345.2,114.2z"/>
	</g>
	<g>
		<path class="st23" d="M312.5,66.7c-1.4,0-2.5-1.1-2.5-2.5c0-9.4,3.7-18.2,10.3-24.8c13.7-13.7,36-13.7,49.7,0
			c1.2,1.2,2.4,2.6,3.4,3.9c0.8,1.1,0.6,2.7-0.5,3.5c-1.1,0.8-2.7,0.6-3.5-0.5c-0.9-1.2-1.9-2.3-2.9-3.4
			c-11.7-11.7-30.9-11.7-42.6,0c-5.7,5.7-8.8,13.3-8.8,21.3C315,65.6,313.9,66.7,312.5,66.7z"/>
	</g>
	<g>
		<path class="st23" d="M345.2,99.3c-9,0-18-3.4-24.8-10.3c-1.3-1.3-2.4-2.6-3.5-4c-0.8-1.1-0.6-2.7,0.5-3.5
			c1.1-0.8,2.7-0.6,3.5,0.5c0.9,1.2,1.9,2.4,3,3.5c11.7,11.7,30.9,11.7,42.6,0c5.7-5.7,8.8-13.3,8.8-21.3c0-1.4,1.1-2.5,2.5-2.5
			s2.5,1.1,2.5,2.5c0,9.4-3.7,18.2-10.3,24.8C363.2,95.9,354.2,99.3,345.2,99.3z"/>
	</g>
	<g>
		<path class="st23" d="M371.4,47.3h-8.7c-1.4,0-2.5-1.1-2.5-2.5s1.1-2.5,2.5-2.5h6.2v-6.2c0-1.4,1.1-2.5,2.5-2.5s2.5,1.1,2.5,2.5
			v8.7C373.9,46.2,372.8,47.3,371.4,47.3z"/>
	</g>
	<g>
		<path class="st23" d="M318.9,94.7c-1.4,0-2.5-1.1-2.5-2.5v-8.7c0-1.4,1.1-2.5,2.5-2.5h8.7c1.4,0,2.5,1.1,2.5,2.5S329,86,327.6,86
			h-6.2v6.2C321.4,93.6,320.3,94.7,318.9,94.7z"/>
	</g>
	<g>
		<path class="st23" d="M345.2,80.8c-0.5,0-1-0.2-1.5-0.5l-14.1-10.2c-1.3-0.9-1.8-2.5-1.3-4l4.8-14.9c0.4-1.3,1.6-2.1,2.9-2.1
			c0,0,0,0,0,0c1.3,0,2.5,0.9,2.9,2.1l2.7,8.2l7.1,0l2.7-8.2c0.4-1.3,1.6-2.1,2.9-2.1c0,0,0,0,0,0c1.3,0,2.5,0.8,2.9,2.1l4.9,15
			c0.5,1.5,0,3.1-1.3,4l-14.1,10.2C346.2,80.6,345.7,80.8,345.2,80.8z M333.4,66.6l11.8,8.6l11.8-8.6l-2.7-8.3l-1.4,4.2
			c-0.3,1-1.3,1.7-2.4,1.7l-10.7,0c0,0,0,0,0,0c-1.1,0-2-0.7-2.4-1.7l-1.4-4.2L333.4,66.6z"/>
	</g>
</g>
<g>
	<g>
		<path class="st21" d="M635.4,87.3h-30.1v-53c0-10.2,4.4-19.8,12.1-26.5v0c1.7-1.5,4.3-1.5,6,0v0c7.7,6.7,12.1,16.4,12.1,26.5V87.3
			z"/>
	</g>
	<g>
		<path class="st21" d="M605.4,82.2l-22.2,3.4v-7c0-10.5,4.5-20.6,12.4-27.6l3.7-3.3c3.9-3.4,6.1-8.3,6.1-13.5v-1.7"/>
	</g>
	<g>
		<path class="st21" d="M635.4,82.2l22.2,3.4v-7c0-10.5-4.5-20.6-12.4-27.6l-3.7-3.3c-3.9-3.4-6.1-8.3-6.1-13.5v-1.7"/>
	</g>
	<g>
		<polygon class="st37" points="656.3,84.6 636.6,81.1 636.6,71.8 656.3,75.3 		"/>
	</g>
	<g>
		<polygon class="st37" points="584.4,84.6 604.1,81.1 604.1,71.8 584.4,75.3 		"/>
	</g>
	<g>
		<rect x="597.7" y="72.3" class="st39" width="7.7" height="10"/>
	</g>
	<g>
		<rect x="597.7" y="46.9" class="st20" width="7.7" height="25.3"/>
	</g>
	<g>
		<rect x="635.4" y="72.3" class="st39" width="7.7" height="10"/>
	</g>
	<g>
		<rect x="635.4" y="46.9" class="st20" width="7.7" height="25.3"/>
	</g>
	<g>
		<path class="st33" d="M609.9,87.3c-5.8,4.9-3.9,13.1,2.3,16.1c0.4-2.5,2.4-4.9,4.7-6c0,0,4.7,10-2.3,18.5
			c16,1.1,25.3-17.3,15.7-28.5"/>
	</g>
	<g>
		<g>
			<path class="st1" d="M635.4,89.8h-30.1c-1.4,0-2.5-1.1-2.5-2.5v-53c0-10.9,4.7-21.3,12.9-28.4c2.6-2.3,6.6-2.3,9.3,0
				c8.2,7.2,12.9,17.5,12.9,28.4v53C637.9,88.6,636.8,89.8,635.4,89.8z M607.9,84.8h25.1V34.3c0-9.5-4.1-18.4-11.2-24.7
				c-0.8-0.7-1.9-0.7-2.7,0c-7.1,6.2-11.2,15.2-11.2,24.7V84.8z"/>
		</g>
		<g>
			<path class="st1" d="M583.1,88.2c-0.6,0-1.2-0.2-1.6-0.6c-0.6-0.5-0.9-1.2-0.9-1.9v-7c0-11.3,4.8-22,13.3-29.4l3.7-3.3
				c3.3-2.9,5.2-7.2,5.2-11.6v-1.7c0-1.4,1.1-2.5,2.5-2.5s2.5,1.1,2.5,2.5v1.7c0,5.9-2.5,11.5-6.9,15.3l-3.7,3.3
				c-7.4,6.5-11.6,15.9-11.6,25.7v4.1l19.3-3c1.4-0.2,2.6,0.7,2.9,2.1c0.2,1.4-0.7,2.6-2.1,2.9l-22.2,3.4
				C583.4,88.1,583.3,88.2,583.1,88.2z"/>
		</g>
		<g>
			<path class="st1" d="M657.6,88.2c-0.1,0-0.3,0-0.4,0l-22.2-3.4c-1.4-0.2-2.3-1.5-2.1-2.9c0.2-1.4,1.5-2.3,2.9-2.1l19.3,3v-4.1
				c0-9.8-4.2-19.2-11.6-25.7l-3.7-3.3c-4.4-3.9-6.9-9.5-6.9-15.3v-1.7c0-1.4,1.1-2.5,2.5-2.5s2.5,1.1,2.5,2.5v1.7
				c0,4.4,1.9,8.7,5.2,11.6l3.7,3.3c8.4,7.5,13.3,18.2,13.3,29.4v7c0,0.7-0.3,1.4-0.9,1.9C658.8,87.9,658.2,88.2,657.6,88.2z"/>
		</g>
		<g>
			<path class="st1" d="M584,77.5c-1.2,0-2.3-0.9-2.5-2.1c-0.2-1.4,0.7-2.6,2.1-2.9l21.3-3.3c1.4-0.2,2.6,0.7,2.9,2.1
				c0.2,1.4-0.7,2.6-2.1,2.9l-21.3,3.3C584.3,77.5,584.1,77.5,584,77.5z"/>
		</g>
		<g>
			<path class="st1" d="M656.3,77.4c-0.1,0-0.3,0-0.4,0l-20.9-3.2c-1.4-0.2-2.3-1.5-2.1-2.9c0.2-1.4,1.5-2.3,2.9-2.1l20.9,3.2
				c1.4,0.2,2.3,1.5,2.1,2.9C658.6,76.5,657.5,77.4,656.3,77.4z"/>
		</g>
		<g>
			<path class="st1" d="M615.9,118.3c-0.5,0-1,0-1.5-0.1c-0.9-0.1-1.8-0.6-2.1-1.5c-0.4-0.9-0.2-1.9,0.4-2.6c3.6-4.4,3.6-9.3,3-12.5
				c-0.5,0.7-0.8,1.4-0.9,2.1c-0.1,0.8-0.6,1.4-1.3,1.8c-0.7,0.4-1.5,0.4-2.2,0c-3.9-1.9-6.6-5.6-7.1-9.8c-0.5-4,1.1-7.8,4.3-10.5
				c1.1-0.9,2.6-0.7,3.5,0.3c0.9,1.1,0.7,2.6-0.3,3.5c-1.9,1.6-2.8,3.8-2.5,6c0.2,1.6,1,3.1,2.1,4.3c1.1-1.8,2.7-3.4,4.7-4.4
				c0.6-0.3,1.3-0.4,2-0.1c0.6,0.2,1.2,0.7,1.5,1.3c0.2,0.4,3.8,8.5,0.1,16.7c5.3-1.1,8.9-4.8,10.7-8.4c2.7-5.4,2.1-11.4-1.6-15.8
				c-0.9-1.1-0.8-2.6,0.3-3.5c1.1-0.9,2.6-0.8,3.5,0.3c5,5.9,5.9,14.1,2.3,21.3C630.9,114.1,623.9,118.3,615.9,118.3z"/>
		</g>
		<g>
			<path class="st1" d="M615,29.6c-0.3,0-0.6-0.1-0.9-0.2c-1.3-0.5-1.9-2-1.4-3.2c1.2-3.2,4.3-5.3,7.7-5.3c3.4,0,6.4,2.1,7.7,5.3
				c0.5,1.3-0.1,2.7-1.4,3.2c-1.3,0.5-2.7-0.1-3.2-1.4c-0.5-1.3-1.7-2.1-3-2.1c-1.4,0-2.5,0.8-3,2.1C617,29,616,29.6,615,29.6z"/>
		</g>
	</g>
</g>
<g>
	<g>
		<path class="st33" d="M947.1,72.7H843.6V25.6c0-3.1,2.5-5.6,5.6-5.6h92.3c3.1,0,5.6,2.5,5.6,5.6V72.7z"/>
	</g>
	<g>
		<rect x="858.1" y="45.9" class="st47" width="75" height="26.8"/>
	</g>
	<g>
		<rect x="882.7" y="80.4" class="st31" width="25.7" height="24.6"/>
	</g>
	<g>
		<rect x="882.7" y="87.7" class="st41" width="25.7" height="6.9"/>
	</g>
	<g>
		<path class="st31" d="M913.6,102.5h-36c-3.5,0-6.3,2.8-6.3,6.3v2.8h48.6v-2.8C919.9,105.4,917.1,102.5,913.6,102.5z"/>
	</g>
	<g>
		<path class="st31" d="M940.6,87.7h-89.9c-3.9,0-7-3.1-7-7V73h104v7.8C947.6,84.6,944.5,87.7,940.6,87.7z"/>
	</g>
	<g>
		<path class="st23" d="M941.8,89.2h-92.4c-4.3,0-7.8-3.5-7.8-7.8V25.3c0-4.3,3.5-7.8,7.8-7.8h92.4c4.3,0,7.8,3.5,7.8,7.8v56.1
			C949.6,85.7,946.1,89.2,941.8,89.2z M849.4,22.5c-1.5,0-2.8,1.2-2.8,2.8v56.1c0,1.5,1.2,2.8,2.8,2.8h92.4c1.5,0,2.8-1.2,2.8-2.8
			V25.3c0-1.5-1.2-2.8-2.8-2.8H849.4z"/>
	</g>
	<g>
		<path class="st23" d="M945.9,75.2H844.1c-1.4,0-2.5-1.1-2.5-2.5s1.1-2.5,2.5-2.5h101.8c1.4,0,2.5,1.1,2.5,2.5
			S947.3,75.2,945.9,75.2z"/>
	</g>
	<g>
		<path class="st23" d="M907.9,105.3h-24.5c-1.4,0-2.5-1.1-2.5-2.5v-16c0-1.4,1.1-2.5,2.5-2.5s2.5,1.1,2.5,2.5v13.5h19.5v-6.5
			c0-1.4,1.1-2.5,2.5-2.5s2.5,1.1,2.5,2.5v9C910.4,104.1,909.3,105.3,907.9,105.3z"/>
	</g>
	<g>
		<path class="st23" d="M918.7,113.9h-46.2c-1.4,0-2.5-1.1-2.5-2.5v-2.6c0-4.7,3.8-8.5,8.5-8.5h34.2c4.7,0,8.5,3.8,8.5,8.5v2.6
			C921.2,112.8,920.1,113.9,918.7,113.9z M875,108.9h41.2v-0.1c0-1.9-1.6-3.5-3.5-3.5h-34.2c-1.9,0-3.5,1.6-3.5,3.5V108.9z"/>
	</g>
	<g>
		<path class="st12" d="M930.1,30h-69c-1.7,0-3,1.3-3,3v12.8h75V33C933.1,31.4,931.8,30,930.1,30z"/>
	</g>
	<g>
		<path class="st23" d="M933.1,48.5h-75c-1.4,0-2.5-1.1-2.5-2.5s1.1-2.5,2.5-2.5h75c1.4,0,2.5,1.1,2.5,2.5S934.5,48.5,933.1,48.5z"
			/>
	</g>
	<g>
		<path class="st23" d="M933.1,66c-1.4,0-2.5-1.1-2.5-2.5V33c0-0.3-0.2-0.5-0.5-0.5h-69c-0.3,0-0.5,0.2-0.5,0.5v30.5
			c0,1.4-1.1,2.5-2.5,2.5s-2.5-1.1-2.5-2.5V33c0-3,2.5-5.5,5.5-5.5h69c3,0,5.5,2.5,5.5,5.5v30.5C935.6,64.9,934.5,66,933.1,66z"/>
	</g>
	<g>
		<g>
			<path class="st23" d="M907.7,65.5c-1.2,0-2.3-0.9-2.5-2.2l-1-7.2c-0.1-0.8,0.2-1.5,0.7-2.1c0.6-0.6,1.3-0.8,2.1-0.7l7.2,1
				c1.4,0.2,2.3,1.4,2.1,2.8c-0.2,1.4-1.4,2.3-2.8,2.1l-4-0.5l0.5,4c0.2,1.4-0.8,2.6-2.1,2.8C908,65.5,907.9,65.5,907.7,65.5z"/>
		</g>
		<g>
			<path class="st23" d="M914.7,66.2c-0.6,0-1.3-0.2-1.8-0.7l-7.9-7.9c-1-1-1-2.6,0-3.5c1-1,2.6-1,3.5,0l7.9,7.9c1,1,1,2.6,0,3.5
				C916,66,915.4,66.2,914.7,66.2z"/>
		</g>
	</g>
	<g>
		<path class="st23" d="M866.7,40.5c-0.7,0-1.3-0.3-1.8-0.7c-0.1-0.1-0.2-0.2-0.3-0.4c-0.1-0.1-0.2-0.3-0.2-0.4s-0.1-0.3-0.1-0.5
			c0-0.2-0.1-0.3-0.1-0.5c0-0.2,0-0.3,0.1-0.5c0-0.2,0.1-0.3,0.1-0.5c0.1-0.2,0.1-0.3,0.2-0.4c0.1-0.1,0.2-0.3,0.3-0.4
			c0.6-0.6,1.4-0.9,2.3-0.7c0.2,0,0.3,0.1,0.5,0.1c0.2,0.1,0.3,0.1,0.4,0.2c0.1,0.1,0.3,0.2,0.4,0.3c0.1,0.1,0.2,0.2,0.3,0.4
			s0.2,0.3,0.2,0.4c0.1,0.1,0.1,0.3,0.1,0.5c0,0.2,0,0.3,0,0.5c0,0.2,0,0.3,0,0.5c0,0.2-0.1,0.3-0.1,0.5c-0.1,0.1-0.1,0.3-0.2,0.4
			c-0.1,0.1-0.2,0.3-0.3,0.4C868,40.2,867.3,40.5,866.7,40.5z"/>
	</g>
	<g>
		<path class="st23" d="M873.8,40.5c-0.7,0-1.3-0.3-1.8-0.7c-0.1-0.1-0.2-0.2-0.3-0.4c-0.1-0.1-0.2-0.3-0.2-0.4
			c-0.1-0.1-0.1-0.3-0.2-0.5c0-0.2,0-0.3,0-0.5c0-0.7,0.3-1.3,0.7-1.8c0.9-0.9,2.6-0.9,3.5,0c0.5,0.5,0.7,1.1,0.7,1.8
			c0,0.2,0,0.3,0,0.5c0,0.2-0.1,0.3-0.2,0.5c-0.1,0.1-0.1,0.3-0.2,0.4c-0.1,0.1-0.2,0.3-0.3,0.4C875.1,40.2,874.5,40.5,873.8,40.5z"
			/>
	</g>
	<g>
		<path class="st23" d="M881,40.5c-0.7,0-1.3-0.3-1.8-0.7c-0.1-0.1-0.2-0.2-0.3-0.4c-0.1-0.1-0.2-0.3-0.2-0.4
			c-0.1-0.1-0.1-0.3-0.1-0.5c0-0.2-0.1-0.3-0.1-0.5c0-0.7,0.3-1.3,0.7-1.8c0.1-0.1,0.2-0.2,0.4-0.3c0.1-0.1,0.3-0.2,0.4-0.2
			c0.1-0.1,0.3-0.1,0.5-0.1c0.8-0.2,1.7,0.1,2.3,0.7c0.5,0.5,0.7,1.1,0.7,1.8c0,0.2,0,0.3,0,0.5c0,0.2-0.1,0.3-0.1,0.5
			c-0.1,0.1-0.1,0.3-0.2,0.4c-0.1,0.1-0.2,0.3-0.3,0.4c-0.1,0.1-0.2,0.2-0.4,0.3c-0.1,0.1-0.3,0.2-0.4,0.2c-0.1,0.1-0.3,0.1-0.5,0.1
			C881.4,40.5,881.2,40.5,881,40.5z"/>
	</g>
	<g>
		<path class="st23" d="M924.1,40.5h-35.6c-1.4,0-2.5-1.1-2.5-2.5s1.1-2.5,2.5-2.5h35.6c1.4,0,2.5,1.1,2.5,2.5
			S925.5,40.5,924.1,40.5z"/>
	</g>
</g>
<g>
	<g>
		<path class="st30" d="M682.7,293.8L682.7,293.8c-17.1,0-30.9,13.8-30.9,30.9v10.6h13v-10.6c0-9.9,8-17.9,17.9-17.9h0
			c9.9,0,17.9,8,17.9,17.9v10.6h13v-10.6C713.6,307.7,699.8,293.8,682.7,293.8z"/>
	</g>
	<g>
		<rect x="643.2" y="335.4" class="st19" width="78.9" height="57.5"/>
	</g>
	<g>
		<circle class="st18" cx="682.7" cy="364.1" r="20.8"/>
	</g>
	<g>
		<path class="st47" d="M668.8,379.7c3.7,3.4,8.5,5.3,13.8,5.3c5.3,0,10.1-2,13.8-5.3c-3.7-3.3-8.5-5.3-13.8-5.3
			C677.4,374.4,672.5,376.4,668.8,379.7z"/>
	</g>
	<g>
		<circle class="st47" cx="682.7" cy="361.6" r="6.3"/>
	</g>
	<g>
		<path class="st23" d="M722.1,395.3h-69.2c-1.4,0-2.5-1.1-2.5-2.5s1.1-2.5,2.5-2.5h66.7v-52.5h-73.9v55c0,1.4-1.1,2.5-2.5,2.5
			s-2.5-1.1-2.5-2.5v-57.5c0-1.4,1.1-2.5,2.5-2.5h78.9c1.4,0,2.5,1.1,2.5,2.5v57.5C724.6,394.2,723.5,395.3,722.1,395.3z"/>
	</g>
	<g>
		<path class="st23" d="M713.6,337.9c-1.4,0-2.5-1.1-2.5-2.5v-10.6c0-15.7-12.8-28.4-28.4-28.4s-28.4,12.8-28.4,28.4v10.6
			c0,1.4-1.1,2.5-2.5,2.5s-2.5-1.1-2.5-2.5v-10.6c0-18.4,15-33.4,33.4-33.4s33.4,15,33.4,33.4v10.6
			C716.1,336.8,715,337.9,713.6,337.9z"/>
	</g>
	<g>
		<path class="st23" d="M664.7,337.9c-1.4,0-2.5-1.1-2.5-2.5v-10.6c0-11.3,9.2-20.4,20.4-20.4c11.3,0,20.4,9.2,20.4,20.4v3.5
			c0,1.4-1.1,2.5-2.5,2.5s-2.5-1.1-2.5-2.5v-3.5c0-8.5-6.9-15.4-15.4-15.4c-8.5,0-15.4,6.9-15.4,15.4v10.6
			C667.2,336.8,666.1,337.9,664.7,337.9z"/>
	</g>
	<g>
		<path class="st23" d="M682.7,387.4c-5.9,0-11.4-2.1-15.5-5.9c-0.5-0.5-0.8-1.2-0.8-1.9s0.3-1.4,0.8-1.8c4.3-3.8,9.8-5.9,15.5-5.9
			s11.2,2.1,15.5,5.9c0.5,0.5,0.8,1.2,0.8,1.9c0,0.7-0.3,1.4-0.8,1.9C693.9,385.3,688.4,387.4,682.7,387.4z M673,379.7
			c2.8,1.8,6.1,2.7,9.7,2.7c3.4,0,6.8-1,9.7-2.8c-2.9-1.8-6.2-2.8-9.7-2.8C679.2,376.9,675.9,377.9,673,379.7z"/>
	</g>
	<g>
		<path class="st23" d="M682.7,370.4c-4.9,0-8.8-3.9-8.8-8.8s3.9-8.8,8.8-8.8s8.8,3.9,8.8,8.8S687.5,370.4,682.7,370.4z
			 M682.7,357.8c-2.1,0-3.8,1.7-3.8,3.8s1.7,3.8,3.8,3.8s3.8-1.7,3.8-3.8S684.8,357.8,682.7,357.8z"/>
	</g>
	<g>
		<path class="st23" d="M701.2,376.1c-0.4,0-0.8-0.1-1.1-0.3c-1.2-0.6-1.7-2.1-1.1-3.4c1.3-2.6,2-5.4,2-8.4
			c0-10.1-8.2-18.3-18.3-18.3s-18.3,8.2-18.3,18.3c0,2.9,0.7,5.7,2,8.3c0.6,1.2,0.1,2.7-1.1,3.4c-1.2,0.6-2.7,0.1-3.4-1.1
			c-1.7-3.3-2.5-6.9-2.5-10.6c0-12.9,10.5-23.3,23.3-23.3s23.3,10.5,23.3,23.3c0,3.7-0.9,7.4-2.6,10.7
			C703,375.6,702.1,376.1,701.2,376.1z"/>
	</g>
</g>
<g>
	<g>
		<g>
			<circle class="st7" cx="89.6" cy="347.8" r="19.9"/>
		</g>
		<g>
			<path class="st23" d="M86.5,355.6c-0.6,0-1.3-0.2-1.8-0.7l-4.5-4.5c-1-1-1-2.6,0-3.5c1-1,2.6-1,3.5,0l2.7,2.7l8.9-8.9
				c1-1,2.6-1,3.5,0c1,1,1,2.6,0,3.5l-10.7,10.7C87.8,355.4,87.2,355.6,86.5,355.6z"/>
		</g>
		<g>
			<path class="st23" d="M89.6,370.2c-12.4,0-22.4-10.1-22.4-22.4s10.1-22.4,22.4-22.4s22.4,10.1,22.4,22.4S102,370.2,89.6,370.2z
				 M89.6,330.3c-9.6,0-17.4,7.8-17.4,17.4s7.8,17.4,17.4,17.4s17.4-7.8,17.4-17.4S99.3,330.3,89.6,330.3z"/>
		</g>
	</g>
	<g>
		<g>
			<circle class="st3" cx="28.7" cy="347.8" r="19.9"/>
		</g>
		<g>
			<path class="st23" d="M28.7,370.2c-12.4,0-22.4-10.1-22.4-22.4s10.1-22.4,22.4-22.4s22.4,10.1,22.4,22.4S41,370.2,28.7,370.2z
				 M28.7,330.3c-9.6,0-17.4,7.8-17.4,17.4s7.8,17.4,17.4,17.4s17.4-7.8,17.4-17.4S38.3,330.3,28.7,330.3z"/>
		</g>
		<g>
			<path class="st23" d="M23.3,355.6c-0.6,0-1.3-0.2-1.8-0.7c-1-1-1-2.6,0-3.5l10.7-10.7c1-1,2.6-1,3.5,0c1,1,1,2.6,0,3.5
				l-10.7,10.7C24.6,355.4,23.9,355.6,23.3,355.6z"/>
		</g>
		<g>
			<path class="st23" d="M34,355.6c-0.6,0-1.3-0.2-1.8-0.7l-10.7-10.7c-1-1-1-2.6,0-3.5c1-1,2.6-1,3.5,0l10.7,10.7c1,1,1,2.6,0,3.5
				C35.3,355.4,34.7,355.6,34,355.6z"/>
		</g>
	</g>
	<g>
		<g>
			<g>
				<g id="g48_9_" transform="translate(155.197863, 1.160267)">
					<g id="path50_9_">
						<path class="st48" d="M-96.4,322.1L-96.4,322.1l12.2-37.2h-24.3L-96.4,322.1L-96.4,322.1z"/>
					</g>
				</g>
				<g id="g56_9_" transform="translate(28.531199, 1.160800)">
					<g id="path58_9_">
						<path class="st16" d="M30.3,322.1l-12.2-37.2h-17L30.3,322.1L30.3,322.1z"/>
					</g>
				</g>
				<g id="g72_9_" transform="translate(29.421866, 280.255593)">
					<g id="path74_9_">
						<path class="st48" d="M0.2,5.8h17L9.9-16.6c-0.4-1.1-2-1.1-2.4,0L0.2,5.8L0.2,5.8z"/>
					</g>
				</g>
				<g id="g76_9_" transform="translate(247.197860, 1.160800)">
					<g id="path78_9_">
						<path class="st16" d="M-188.4,322.1l12.2-37.2h17L-188.4,322.1L-188.4,322.1z"/>
					</g>
				</g>
				<g id="g80_13_" transform="translate(246.307061, 0.255867)">
					<g id="path82_13_">
						<path class="st49" d="M-158.3,285.8L-158.3,285.8l3.7,11.3c0.3,1,0,2.2-0.9,2.8l-32,23.1L-158.3,285.8L-158.3,285.8z"/>
					</g>
				</g>
				<g id="g80_10_" transform="translate(246.307061, 0.255867)">
					<g id="path82_10_">
						<path class="st49" d="M-216.7,285.8L-216.7,285.8l-3.7,11.3c-0.3,1,0,2.2,0.9,2.8l32,23.1L-216.7,285.8L-216.7,285.8z"/>
					</g>
				</g>
				<g id="g84_9_" transform="translate(336.973725, 280.255593)">
					<g id="path86_9_">
						<path class="st48" d="M-249,5.8h-17l7.3-22.4c0.4-1.1,2-1.1,2.4,0L-249,5.8L-249,5.8z"/>
					</g>
				</g>
			</g>
		</g>
		<g>
			<g>
				<g>
					<g id="g48_8_" transform="translate(155.197863, 1.160267)">
						<g id="path50_8_">
							<path class="st23" d="M-96,325.1c-1.1,0-2-0.7-2.4-1.7l-12.4-37.9c-0.3-0.8-0.1-1.6,0.3-2.2c0.5-0.6,1.2-1,2-1h24.9
								c0.8,0,1.6,0.4,2,1c0.5,0.6,0.6,1.5,0.3,2.2l-12.4,37.9C-94,324.4-95,325.1-96,325.1z M-105,287.3l9,27.4l9-27.4H-105z"/>
						</g>
					</g>
					<g id="g56_8_" transform="translate(28.531199, 1.160800)">
						<g id="path58_8_">
							<path class="st23" d="M30.6,325.1c-0.7,0-1.5-0.3-2-1l-29.9-37.9c-0.6-0.8-0.7-1.8-0.3-2.6c0.4-0.9,1.3-1.4,2.2-1.4h17.4
								c1.1,0,2,0.7,2.4,1.7L33,321.8c0.4,1.2-0.1,2.4-1.2,3C31.4,325,31,325.1,30.6,325.1z M5.9,287.3L23.8,310l-7.5-22.7H5.9z"/>
						</g>
					</g>
					<g id="g64_8_" transform="translate(0.088533, 0.255867)">
						<g id="path66_8_">
							<path class="st23" d="M59.1,326c-0.5,0-1-0.2-1.5-0.5l-32.7-23.5c-1.8-1.3-2.5-3.6-1.9-5.7l3.8-11.5c0.3-0.9,1-1.5,1.9-1.7
								c0.9-0.2,1.8,0.2,2.4,0.9L61,322c0.8,1,0.7,2.4-0.2,3.3C60.4,325.8,59.7,326,59.1,326z M30.1,290.9l-2.3,7.1l18.3,13.2
								L30.1,290.9z"/>
						</g>
					</g>
					<g id="g72_8_" transform="translate(29.421866, 280.255593)">
						<g id="path74_8_">
							<path class="st23" d="M17.3,8.2H-0.2c-0.8,0-1.6-0.4-2-1c-0.5-0.6-0.6-1.5-0.4-2.2l7.5-22.8c0.5-1.6,2-2.6,3.6-2.6
								c0,0,0,0,0,0c1.6,0,3.1,1,3.6,2.6l7.5,22.8c0.3,0.8,0.1,1.6-0.3,2.2C18.8,7.8,18.1,8.2,17.3,8.2z M3.3,3.2h10.5l-5.3-16
								L3.3,3.2z"/>
						</g>
					</g>
					<g id="g76_8_" transform="translate(247.197860, 1.160800)">
						<g id="path78_8_">
							<path class="st23" d="M-188,325.1c-0.4,0-0.8-0.1-1.2-0.3c-1.1-0.6-1.6-1.8-1.2-3L-178,284c0.3-1,1.3-1.7,2.4-1.7h17.4
								c1,0,1.8,0.5,2.2,1.4c0.4,0.9,0.3,1.9-0.3,2.6l-29.9,37.9C-186.6,324.8-187.3,325.1-188,325.1z M-173.8,287.3l-7.5,22.7
								l18-22.7H-173.8z"/>
						</g>
					</g>
					<g id="g80_9_" transform="translate(246.307061, 0.255867)">
						<g id="path82_9_">
							<path class="st23" d="M-187.1,326c-0.7,0-1.3-0.3-1.8-0.8c-0.9-0.9-0.9-2.3-0.2-3.3l29.9-37.8c0.6-0.7,1.5-1.1,2.4-0.9
								c0.9,0.2,1.7,0.8,1.9,1.7l3.8,11.5c0.7,2.1-0.1,4.4-1.8,5.7l-32.7,23.5C-186.1,325.9-186.6,326-187.1,326z M-158.2,290.9
								l-16,20.3l18.3-13.1L-158.2,290.9z"/>
						</g>
					</g>
					<g id="g84_8_" transform="translate(336.973725, 280.255593)">
						<g id="path86_8_">
							<path class="st23" d="M-247.9,8.2h-17.4c-0.8,0-1.6-0.4-2-1s-0.6-1.5-0.4-2.2l7.5-22.8c0.5-1.5,1.9-2.6,3.6-2.6
								c1.7,0,3.1,1,3.6,2.6l7.5,22.8c0.3,0.8,0.1,1.6-0.4,2.2S-247.1,8.2-247.9,8.2z M-261.9,3.2h10.5l-5.3-16L-261.9,3.2z"/>
						</g>
					</g>
				</g>
			</g>
		</g>
	</g>
</g>
<g>
	<g>
		<path class="st13" d="M481.7,337.2h-92.5c-3.2,0-5.8-2.6-5.8-5.8v-58.7c0-3.2,2.6-5.8,5.8-5.8h92.5c3.2,0,5.8,2.6,5.8,5.8v58.7
			C487.4,334.6,484.9,337.2,481.7,337.2z"/>
	</g>
	<g>
		<rect x="426.8" y="279.2" class="st47" width="14.4" height="14.4"/>
	</g>
	<g>
		<rect x="422.5" y="329.8" class="st31" width="25.7" height="26.6"/>
	</g>
	<g>
		<rect x="422.5" y="337.2" class="st41" width="25.7" height="6.9"/>
	</g>
	<g>
		<path class="st31" d="M453.4,354h-36c-3.5,0-6.3,2.8-6.3,6.3v2.8h48.6v-2.8C459.7,356.8,456.9,354,453.4,354z"/>
	</g>
	<g>
		<path class="st31" d="M480.4,337.2h-89.9c-3.9,0-7-3.1-7-7v-7.8h104v7.8C487.4,334,484.3,337.2,480.4,337.2z"/>
	</g>
	<g>
		<path class="st23" d="M481.9,339.7H389c-4.4,0-8.1-3.6-8.1-8.1v-59.1c0-4.4,3.6-8.1,8.1-8.1c1.4,0,2.5,1.1,2.5,2.5
			s-1.1,2.5-2.5,2.5c-1.7,0-3.1,1.4-3.1,3.1v59.1c0,1.7,1.4,3.1,3.1,3.1h92.9c1.7,0,3.1-1.4,3.1-3.1v-59.1c0-1.7-1.4-3.1-3.1-3.1
			h-83c-1.4,0-2.5-1.1-2.5-2.5s1.1-2.5,2.5-2.5h83c4.4,0,8.1,3.6,8.1,8.1v59.1C489.9,336,486.3,339.7,481.9,339.7z"/>
	</g>
	<g>
		<path class="st23" d="M486.2,324.9H383.4c-1.4,0-2.5-1.1-2.5-2.5s1.1-2.5,2.5-2.5h102.7c1.4,0,2.5,1.1,2.5,2.5
			S487.6,324.9,486.2,324.9z"/>
	</g>
	<g>
		<path class="st23" d="M448.4,356.5h-25.8c-1.4,0-2.5-1.1-2.5-2.5v-16.8c0-1.4,1.1-2.5,2.5-2.5s2.5,1.1,2.5,2.5v14.3h20.8v-6.9
			c0-1.4,1.1-2.5,2.5-2.5s2.5,1.1,2.5,2.5v9.4C450.9,355.3,449.7,356.5,448.4,356.5z"/>
	</g>
	<g>
		<path class="st23" d="M459.7,365.5h-48.6c-1.4,0-2.5-1.1-2.5-2.5v-2.8c0-4.9,4-8.8,8.8-8.8h36c4.9,0,8.8,4,8.8,8.8v2.8
			C462.2,364.4,461.1,365.5,459.7,365.5z M413.6,360.5h43.6v-0.3c0-2.1-1.7-3.8-3.8-3.8h-36c-2.1,0-3.8,1.7-3.8,3.8V360.5z"/>
	</g>
	<g>
		<path class="st7" d="M434.9,312.5L434.9,312.5c-4.2,0-7.6-3.4-7.6-7.6v-11.7h15.2v11.7C442.5,309.1,439.1,312.5,434.9,312.5z"/>
	</g>
	<g>
		<path class="st23" d="M434.8,315.4c-5.8,0-10.5-4.7-10.5-10.5v-24c0-1.4,1.1-2.5,2.5-2.5s2.5,1.1,2.5,2.5v24c0,3,2.5,5.5,5.5,5.5
			s5.5-2.5,5.5-5.5v-25.7c0-1.4,1.1-2.5,2.5-2.5s2.5,1.1,2.5,2.5v25.7C445.3,310.7,440.6,315.4,434.8,315.4z"/>
	</g>
	<g>
		<path class="st23" d="M446.5,281.7h-23.4c-1.4,0-2.5-1.1-2.5-2.5s1.1-2.5,2.5-2.5h23.4c1.4,0,2.5,1.1,2.5,2.5
			S447.9,281.7,446.5,281.7z"/>
	</g>
	<g>
		<path class="st23" d="M442.6,296.1H427c-1.4,0-2.5-1.1-2.5-2.5s1.1-2.5,2.5-2.5h15.6c1.4,0,2.5,1.1,2.5,2.5S444,296.1,442.6,296.1
			z"/>
	</g>
</g>
<g>
	<g>
		<circle class="st37" cx="254.6" cy="314.5" r="19.5"/>
	</g>
	<g>
		<path class="st33" d="M241.6,329.1c3.5,3.2,8,4.9,13,4.9c5,0,9.5-1.9,13-4.9c-3.5-3.1-8-4.9-13-4.9
			C249.6,324.2,245.1,326,241.6,329.1z"/>
	</g>
	<g>
		<circle class="st33" cx="254.6" cy="312" r="6.2"/>
	</g>
	<g>
		<path class="st23" d="M203.6,337.8c-1,0-1.9-0.6-2.3-1.6c-2.7-6.8-4-13.9-4-21.2c0-31.8,25.8-57.6,57.6-57.6
			c7.3,0,14.5,1.4,21.2,4c1.3,0.5,1.9,2,1.4,3.2c-0.5,1.3-2,1.9-3.2,1.4c-6.2-2.4-12.7-3.7-19.4-3.7c-29,0-52.6,23.6-52.6,52.6
			c0,6.7,1.2,13.2,3.7,19.4c0.5,1.3-0.1,2.7-1.4,3.2C204.3,337.7,204,337.8,203.6,337.8z"/>
	</g>
	<g>
		<path class="st23" d="M254.9,372.6c-8.8,0-17.3-2-25.2-5.8c-1.2-0.6-1.8-2.1-1.1-3.3c0.6-1.2,2.1-1.8,3.3-1.2
			c7.2,3.5,15,5.3,23,5.3c29,0,52.6-23.6,52.6-52.6c0-7.5-1.5-14.7-4.6-21.5c-0.6-1.3,0-2.7,1.3-3.3c1.3-0.6,2.7,0,3.3,1.3
			c3.3,7.4,5,15.3,5,23.5C312.5,346.7,286.7,372.6,254.9,372.6z"/>
	</g>
	<g>
		<path class="st23" d="M217,317.5c-1.4,0-2.5-1.1-2.5-2.5c0-10.8,4.2-20.9,11.8-28.5c15.7-15.7,41.3-15.7,57.1,0
			c1.4,1.4,2.7,2.9,3.9,4.5c0.8,1.1,0.6,2.7-0.5,3.5c-1.1,0.8-2.7,0.6-3.5-0.5c-1-1.4-2.2-2.7-3.4-4c-13.8-13.8-36.2-13.8-50,0
			c-6.7,6.7-10.4,15.6-10.4,25C219.5,316.4,218.4,317.5,217,317.5z"/>
	</g>
	<g>
		<path class="st23" d="M254.9,355.3c-10.3,0-20.7-3.9-28.5-11.8c-1.4-1.4-2.8-3-4-4.6c-0.8-1.1-0.6-2.7,0.5-3.5
			c1.1-0.8,2.7-0.6,3.5,0.5c1.1,1.4,2.2,2.8,3.5,4.1c13.8,13.8,36.2,13.8,50,0c6.7-6.7,10.4-15.6,10.4-25c0-1.4,1.1-2.5,2.5-2.5
			s2.5,1.1,2.5,2.5c0,10.8-4.2,20.9-11.8,28.5C275.6,351.4,265.2,355.3,254.9,355.3z"/>
	</g>
	<g>
		<path class="st23" d="M285.3,295h-10.1c-1.4,0-2.5-1.1-2.5-2.5s1.1-2.5,2.5-2.5h7.6v-7.6c0-1.4,1.1-2.5,2.5-2.5s2.5,1.1,2.5,2.5
			v10.1C287.8,293.8,286.7,295,285.3,295z"/>
	</g>
	<g>
		<path class="st23" d="M224.4,350c-1.4,0-2.5-1.1-2.5-2.5v-10.1c0-1.4,1.1-2.5,2.5-2.5h10.1c1.4,0,2.5,1.1,2.5,2.5
			s-1.1,2.5-2.5,2.5h-7.6v7.6C226.9,348.9,225.8,350,224.4,350z"/>
	</g>
	<g>
		<path class="st23" d="M254.6,336.5c-5.5,0-10.7-2-14.7-5.6c-0.5-0.5-0.8-1.2-0.8-1.9c0-0.7,0.3-1.4,0.8-1.8
			c4-3.6,9.2-5.6,14.6-5.6c5.4,0,10.6,2,14.6,5.6c0.5,0.5,0.8,1.2,0.8,1.9c0,0.7-0.3,1.4-0.8,1.9C265.2,334.6,260,336.5,254.6,336.5
			z M245.8,329.1c2.6,1.6,5.6,2.4,8.8,2.4c3.1,0,6.1-0.8,8.8-2.4c-2.6-1.6-5.7-2.4-8.8-2.4C251.4,326.7,248.4,327.5,245.8,329.1z"/>
	</g>
	<g>
		<path class="st23" d="M254.6,320.5c-4.6,0-8.4-3.8-8.4-8.4c0-4.6,3.8-8.4,8.4-8.4c4.6,0,8.4,3.8,8.4,8.4
			C263,316.7,259.2,320.5,254.6,320.5z M254.6,308.7c-1.9,0-3.4,1.5-3.4,3.4c0,1.9,1.5,3.4,3.4,3.4c1.9,0,3.4-1.5,3.4-3.4
			C258,310.2,256.5,308.7,254.6,308.7z"/>
	</g>
	<g>
		<path class="st23" d="M271.9,325.9c-0.4,0-0.8-0.1-1.1-0.3c-1.2-0.6-1.7-2.1-1.1-3.4c1.2-2.4,1.9-5,1.9-7.8c0-9.4-7.6-17-17-17
			c-9.4,0-17,7.6-17,17c0,2.7,0.6,5.3,1.9,7.7c0.6,1.2,0.1,2.7-1.1,3.4c-1.2,0.6-2.7,0.1-3.4-1.1c-1.6-3.1-2.4-6.5-2.4-10
			c0-12.2,9.9-22,22-22c12.2,0,22,9.9,22,22c0,3.5-0.8,7-2.4,10.1C273.7,325.4,272.9,325.9,271.9,325.9z"/>
	</g>
</g>
<g>
	<g>
		<path class="st30" d="M372.6,552.3h-52.5c-1.4,0-2.5-1.1-2.5-2.5s1.1-2.5,2.5-2.5h52.5c1.4,0,2.5,1.1,2.5,2.5
			S374,552.3,372.6,552.3z"/>
	</g>
	<g>
		<circle class="st7" cx="305.9" cy="549.8" r="14.2"/>
	</g>
	<g>
		<path class="st23" d="M305.9,566.5c-9.2,0-16.7-7.5-16.7-16.7c0-9.2,7.5-16.7,16.7-16.7s16.7,7.5,16.7,16.7
			C322.6,559,315.1,566.5,305.9,566.5z M305.9,538.2c-6.4,0-11.7,5.2-11.7,11.7s5.2,11.7,11.7,11.7s11.7-5.2,11.7-11.7
			S312.3,538.2,305.9,538.2z"/>
	</g>
	<g>
		<path class="st23" d="M303.9,555.8c-0.6,0-1.3-0.2-1.8-0.7l-2.9-2.9c-1-1-1-2.6,0-3.5c1-1,2.6-1,3.5,0l1.1,1.1l5.2-5.2
			c1-1,2.6-1,3.5,0c1,1,1,2.6,0,3.5l-6.9,6.9C305.2,555.6,304.5,555.8,303.9,555.8z"/>
	</g>
	<g>
		<circle class="st7" cx="386.8" cy="549.8" r="14.2"/>
	</g>
	<g>
		<path class="st23" d="M386.8,566.5c-9.2,0-16.7-7.5-16.7-16.7c0-9.2,7.5-16.7,16.7-16.7s16.7,7.5,16.7,16.7
			C403.5,559,396,566.5,386.8,566.5z M386.8,538.2c-6.4,0-11.7,5.2-11.7,11.7s5.2,11.7,11.7,11.7c6.4,0,11.7-5.2,11.7-11.7
			S393.2,538.2,386.8,538.2z"/>
	</g>
	<g>
		<path class="st23" d="M384.8,555.8c-0.6,0-1.3-0.2-1.8-0.7l-2.9-2.9c-1-1-1-2.6,0-3.5c1-1,2.6-1,3.5,0l1.1,1.1l5.2-5.2
			c1-1,2.6-1,3.5,0c1,1,1,2.6,0,3.5l-6.9,6.9C386.1,555.6,385.4,555.8,384.8,555.8z"/>
	</g>
	<g>
		<circle class="st7" cx="346.3" cy="549.8" r="14.2"/>
	</g>
	<g>
		<path class="st23" d="M346.3,566.5c-9.2,0-16.7-7.5-16.7-16.7c0-9.2,7.5-16.7,16.7-16.7s16.7,7.5,16.7,16.7
			C363,559,355.5,566.5,346.3,566.5z M346.3,538.2c-6.4,0-11.7,5.2-11.7,11.7s5.2,11.7,11.7,11.7c6.4,0,11.7-5.2,11.7-11.7
			S352.8,538.2,346.3,538.2z"/>
	</g>
	<g>
		<path class="st23" d="M344.3,555.8c-0.6,0-1.3-0.2-1.8-0.7l-2.9-2.9c-1-1-1-2.6,0-3.5c1-1,2.6-1,3.5,0l1.1,1.1l5.2-5.2
			c1-1,2.6-1,3.5,0c1,1,1,2.6,0,3.5l-6.9,6.9C345.6,555.6,345,555.8,344.3,555.8z"/>
	</g>
	<g>
		<path class="st16" d="M346.8,521.9l14.9-11c0.4-0.3,0.6-0.8,0.4-1.3l-5.1-16.1c-0.2-0.5-0.9-0.5-1.1,0l-3.4,10.7h0v0l-11.4,0
			l-3.4-10.7c-0.2-0.5-0.9-0.5-1.1,0l-5.1,16.1c-0.2,0.5,0,1,0.4,1.3L346.8,521.9"/>
	</g>
	<g>
		<path class="st23" d="M345.9,524.4c-0.5,0-1-0.2-1.5-0.5l-14.9-11c-1.3-0.9-1.8-2.6-1.3-4.1l5.1-16.1c0.4-1.3,1.6-2.1,2.9-2.1
			c0,0,0,0,0,0c1.3,0,2.5,0.9,2.9,2.1l2.9,9l7.7,0l2.9-8.9c0.4-1.3,1.6-2.1,2.9-2.1c0,0,0,0,0,0c1.3,0,2.5,0.9,2.9,2.1l5.1,16.1
			c0.5,1.5,0,3.2-1.3,4.1l-14.9,11C346.9,524.2,346.4,524.4,345.9,524.4z M333.2,509.4l12.7,9.4l12.7-9.4l-3-9.5l-1.6,5
			c-0.3,1-1.3,1.7-2.4,1.7l-11.4,0c0,0,0,0,0,0c-1.1,0-2-0.7-2.4-1.7l-1.6-5L333.2,509.4z"/>
	</g>
</g>
<g>
	<path class="st1" d="M38.1,136.8c0-3.3,2.1-5.3,4.8-5.3c1.5,0,2.5,0.6,3.1,1.3l-1,1.1c-0.5-0.5-1.1-0.8-2-0.8c-1.8,0-3,1.4-3,3.7
		c0,2.3,1.1,3.7,3.1,3.7c0.5,0,1.1-0.2,1.4-0.4v-2.2h-1.9v-1.5h3.6v4.5c-0.7,0.7-1.9,1.2-3.3,1.2C40.2,142.1,38.1,140.2,38.1,136.8z
		"/>
	<path class="st1" d="M48.5,131.7h1.9v10.2h-1.9V131.7z"/>
	<path class="st1" d="M55,133.2h-2.9v-1.6h7.7v1.6h-2.9v8.6H55V133.2z"/>
	<path class="st1" d="M61.5,131.7h1.9v8.6h4.2v1.6h-6.1V131.7z"/>
	<path class="st1" d="M71.4,131.7h2.2l3.3,10.2h-2l-0.8-2.7h-3.4l-0.8,2.7h-1.9L71.4,131.7z M71.2,137.7h2.6l-0.3-1.2
		c-0.3-1.1-0.6-2.2-0.9-3.4h-0.1c-0.3,1.1-0.6,2.3-0.9,3.4L71.2,137.7z"/>
	<path class="st1" d="M78.2,131.7h3.3c2.1,0,3.7,0.6,3.7,2.5c0,1-0.5,1.9-1.4,2.2v0.1c1.1,0.2,2,1,2,2.4c0,2-1.7,3-3.9,3h-3.5V131.7
		z M81.3,135.9c1.4,0,2-0.5,2-1.4c0-1-0.7-1.3-2-1.3H80v2.7H81.3z M81.5,140.4c1.5,0,2.3-0.5,2.3-1.7c0-1-0.8-1.5-2.3-1.5H80v3.2
		H81.5z"/>
	<path class="st1" d="M20,148.3h3.5c2.1,0,3.8,0.7,3.8,3c0,1.5-0.8,2.5-2,2.9l2.4,4.2h-2.1l-2.2-4h-1.5v4H20V148.3z M23.2,153.1
		c1.4,0,2.1-0.6,2.1-1.7c0-1.2-0.7-1.6-2.1-1.6h-1.4v3.3H23.2z"/>
	<path class="st1" d="M29.3,148.3h6.2v1.6h-4.3v2.6h3.7v1.6h-3.7v3h4.5v1.6h-6.3V148.3z"/>
	<path class="st1" d="M37.7,148.3H41c2.3,0,4,0.8,4,3.2c0,2.3-1.7,3.3-3.9,3.3h-1.4v3.7h-1.9V148.3z M40.9,153.3
		c1.5,0,2.2-0.6,2.2-1.8c0-1.2-0.8-1.7-2.3-1.7h-1.2v3.5H40.9z"/>
	<path class="st1" d="M46.3,153.4c0-3.3,1.8-5.2,4.5-5.2c2.7,0,4.5,2,4.5,5.2c0,3.3-1.8,5.3-4.5,5.3
		C48.2,158.7,46.3,156.7,46.3,153.4z M53.4,153.4c0-2.3-1-3.6-2.6-3.6c-1.6,0-2.6,1.4-2.6,3.6c0,2.3,1,3.7,2.6,3.7
		C52.4,157.1,53.4,155.6,53.4,153.4z"/>
	<path class="st1" d="M56.7,157.2l1-1.2c0.7,0.7,1.7,1.1,2.7,1.1c1.1,0,1.7-0.5,1.7-1.3c0-0.8-0.7-1.1-1.6-1.5l-1.4-0.6
		c-1-0.4-2.1-1.2-2.1-2.7c0-1.6,1.4-2.9,3.4-2.9c1.2,0,2.4,0.5,3.2,1.3l-1,1.2c-0.6-0.5-1.4-0.9-2.2-0.9c-1,0-1.6,0.4-1.6,1.2
		c0,0.8,0.8,1.1,1.6,1.4l1.4,0.6c1.2,0.5,2.1,1.3,2.1,2.8c0,1.7-1.4,3-3.7,3C59,158.7,57.7,158.2,56.7,157.2z"/>
	<path class="st1" d="M66,148.3h1.9v10.2H66V148.3z"/>
	<path class="st1" d="M72.5,149.9h-2.9v-1.6h7.7v1.6h-2.9v8.6h-1.9V149.9z"/>
	<path class="st1" d="M78.1,153.4c0-3.3,1.8-5.2,4.5-5.2c2.7,0,4.5,2,4.5,5.2c0,3.3-1.8,5.3-4.5,5.3
		C79.9,158.7,78.1,156.7,78.1,153.4z M85.2,153.4c0-2.3-1-3.6-2.6-3.6c-1.6,0-2.6,1.4-2.6,3.6c0,2.3,1,3.7,2.6,3.7
		C84.2,157.1,85.2,155.6,85.2,153.4z"/>
	<path class="st1" d="M89.2,148.3h3.4c2.1,0,3.8,0.7,3.8,3c0,1.5-0.8,2.5-2,2.9l2.4,4.2h-2.1l-2.2-4H91v4h-1.9V148.3z M92.4,153.1
		c1.4,0,2.1-0.6,2.1-1.7c0-1.2-0.7-1.6-2.1-1.6H91v3.3H92.4z"/>
	<path class="st1" d="M100,154.7l-3.1-6.4h2l1.1,2.6c0.3,0.7,0.6,1.5,0.9,2.2h0.1c0.3-0.8,0.6-1.5,0.9-2.2l1.1-2.6h1.9l-3.1,6.4v3.8
		H100V154.7z"/>
</g>
<g>
	<path class="st1" d="M20.7,381.7h2.7c3.1,0,5,1.7,5,5.1c0,3.4-1.9,5.2-4.9,5.2h-2.8V381.7z M23.3,390.4c2,0,3.2-1.1,3.2-3.7
		c0-2.5-1.2-3.5-3.2-3.5h-0.7v7.2H23.3z"/>
	<path class="st1" d="M30.5,381.7h1.9v10.2h-1.9V381.7z"/>
	<path class="st1" d="M34.2,390.6l1-1.2c0.7,0.7,1.7,1.1,2.7,1.1c1.1,0,1.7-0.5,1.7-1.3c0-0.8-0.7-1.1-1.6-1.5l-1.4-0.6
		c-1-0.4-2.1-1.2-2.1-2.7c0-1.6,1.4-2.9,3.4-2.9c1.2,0,2.4,0.5,3.2,1.3l-1,1.2c-0.6-0.5-1.4-0.9-2.2-0.9c-1,0-1.6,0.4-1.6,1.2
		c0,0.8,0.8,1.1,1.6,1.4l1.4,0.6c1.2,0.5,2.1,1.3,2.1,2.8c0,1.7-1.4,3-3.7,3C36.5,392.1,35.2,391.6,34.2,390.6z"/>
	<path class="st1" d="M43.5,381.7h2.2l1.7,5c0.2,0.7,0.4,1.2,0.6,2h0.1c0.2-0.7,0.3-1.3,0.6-2l1.7-5h2.2v10.2h-1.7v-4.7
		c0-1,0.2-2.4,0.3-3.3h-0.1l-0.8,2.5l-1.7,4.6h-1.2l-1.6-4.6l-0.8-2.5h-0.1c0.1,0.9,0.3,2.3,0.3,3.3v4.7h-1.7V381.7z"/>
	<path class="st1" d="M55.2,381.7H57v10.2h-1.9V381.7z"/>
	<path class="st1" d="M58.9,390.6l1-1.2c0.7,0.7,1.7,1.1,2.7,1.1c1.1,0,1.7-0.5,1.7-1.3c0-0.8-0.7-1.1-1.6-1.5l-1.4-0.6
		c-1-0.4-2.1-1.2-2.1-2.7c0-1.6,1.4-2.9,3.4-2.9c1.2,0,2.4,0.5,3.2,1.3l-1,1.2c-0.6-0.5-1.4-0.9-2.2-0.9c-1,0-1.6,0.4-1.6,1.2
		c0,0.8,0.8,1.1,1.6,1.4l1.4,0.6c1.2,0.5,2.1,1.3,2.1,2.8c0,1.7-1.4,3-3.7,3C61.2,392.1,59.9,391.6,58.9,390.6z"/>
	<path class="st1" d="M67.2,390.6l1-1.2c0.7,0.7,1.7,1.1,2.7,1.1c1.1,0,1.7-0.5,1.7-1.3c0-0.8-0.7-1.1-1.6-1.5l-1.4-0.6
		c-1-0.4-2.1-1.2-2.1-2.7c0-1.6,1.4-2.9,3.4-2.9c1.2,0,2.4,0.5,3.2,1.3l-1,1.2c-0.6-0.5-1.4-0.9-2.2-0.9c-1,0-1.6,0.4-1.6,1.2
		c0,0.8,0.8,1.1,1.6,1.4l1.4,0.6c1.2,0.5,2.1,1.3,2.1,2.8c0,1.7-1.4,3-3.7,3C69.5,392.1,68.2,391.6,67.2,390.6z"/>
	<path class="st1" d="M79.1,386.8c0-3.3,1.8-5.2,4.5-5.2c2.7,0,4.5,2,4.5,5.2c0,3.3-1.8,5.3-4.5,5.3C81,392.1,79.1,390.1,79.1,386.8
		z M86.2,386.8c0-2.3-1-3.6-2.6-3.6c-1.6,0-2.6,1.4-2.6,3.6c0,2.3,1,3.7,2.6,3.7C85.2,390.5,86.2,389.1,86.2,386.8z"/>
	<path class="st1" d="M90.2,381.7h3.4c2.1,0,3.8,0.7,3.8,3c0,1.5-0.8,2.5-2,2.9l2.4,4.2h-2.1l-2.2-4h-1.5v4h-1.9V381.7z M93.5,386.5
		c1.4,0,2.1-0.6,2.1-1.7c0-1.2-0.7-1.6-2.1-1.6h-1.4v3.3H93.5z"/>
	<path class="st1" d="M12.2,403.5c0-3.3,2.1-5.3,4.7-5.3c1.3,0,2.3,0.6,3,1.3l-1,1.1c-0.5-0.5-1.1-0.8-1.9-0.8
		c-1.6,0-2.8,1.4-2.8,3.7c0,2.3,1.1,3.7,2.8,3.7c0.9,0,1.6-0.4,2.2-1l1,1.1c-0.9,1-1.9,1.5-3.2,1.5
		C14.2,408.8,12.2,406.9,12.2,403.5z"/>
	<path class="st1" d="M21.8,398.4h3.4c2.1,0,3.8,0.8,3.8,3c0,1.5-0.8,2.5-2,2.9l2.4,4.2h-2.1l-2.2-4h-1.5v4h-1.9V398.4z M25,403.1
		c1.4,0,2.1-0.6,2.1-1.7c0-1.2-0.7-1.6-2.1-1.6h-1.4v3.3H25z"/>
	<path class="st1" d="M31.1,398.4h6.2v1.6h-4.3v2.6h3.7v1.6h-3.7v3h4.5v1.6h-6.3V398.4z"/>
	<path class="st1" d="M41.5,398.4h2.2l3.3,10.2h-2l-0.8-2.7h-3.4l-0.8,2.7h-1.9L41.5,398.4z M41.3,404.4h2.6l-0.3-1.2
		c-0.3-1.1-0.6-2.2-0.9-3.4h-0.1c-0.3,1.1-0.6,2.3-0.9,3.4L41.3,404.4z"/>
	<path class="st1" d="M49.3,399.9h-2.9v-1.6h7.7v1.6h-2.9v8.6h-1.9V399.9z"/>
	<path class="st1" d="M55.8,398.4H62v1.6h-4.3v2.6h3.7v1.6h-3.7v3h4.5v1.6h-6.3V398.4z"/>
	<path class="st1" d="M67.4,398.4h1.9v10.2h-1.9V398.4z"/>
	<path class="st1" d="M71.2,407.3l1-1.2c0.7,0.7,1.7,1.1,2.7,1.1c1.1,0,1.7-0.5,1.7-1.3c0-0.8-0.7-1.1-1.6-1.5l-1.4-0.6
		c-1-0.4-2.1-1.2-2.1-2.7c0-1.6,1.4-2.9,3.4-2.9c1.2,0,2.4,0.5,3.2,1.3l-1,1.2c-0.6-0.5-1.4-0.9-2.2-0.9c-1,0-1.6,0.4-1.6,1.2
		c0,0.8,0.8,1.1,1.6,1.4l1.4,0.6c1.2,0.5,2.1,1.3,2.1,2.8c0,1.7-1.4,3-3.7,3C73.5,408.8,72.2,408.3,71.2,407.3z"/>
	<path class="st1" d="M79.5,407.3l1-1.2c0.7,0.7,1.7,1.1,2.7,1.1c1.1,0,1.7-0.5,1.7-1.3c0-0.8-0.7-1.1-1.6-1.5l-1.4-0.6
		c-1-0.4-2.1-1.2-2.1-2.7c0-1.6,1.4-2.9,3.4-2.9c1.2,0,2.4,0.5,3.2,1.3l-1,1.2c-0.6-0.5-1.4-0.9-2.2-0.9c-1,0-1.6,0.4-1.6,1.2
		c0,0.8,0.8,1.1,1.6,1.4l1.4,0.6c1.2,0.5,2.1,1.3,2.1,2.8c0,1.7-1.4,3-3.7,3C81.8,408.8,80.5,408.3,79.5,407.3z"/>
	<path class="st1" d="M88.7,404.1v-5.7h1.9v5.9c0,2.2,0.8,2.9,2,2.9c1.2,0,2.1-0.7,2.1-2.9v-5.9h1.8v5.7c0,3.4-1.5,4.7-3.9,4.7
		C90.2,408.8,88.7,407.4,88.7,404.1z"/>
	<path class="st1" d="M99,398.4h6.2v1.6h-4.3v2.6h3.7v1.6h-3.7v3h4.5v1.6H99V398.4z"/>
</g>
<g>
	<g>
		<g>
			<circle class="st7" cx="896.1" cy="376.8" r="19.9"/>
		</g>
		<g>
			<path class="st23" d="M893,384.6c-0.6,0-1.3-0.2-1.8-0.7l-4.5-4.5c-1-1-1-2.6,0-3.5s2.6-1,3.5,0l2.7,2.7l8.9-8.9c1-1,2.6-1,3.5,0
				s1,2.6,0,3.5l-10.7,10.7C894.3,384.4,893.6,384.6,893,384.6z"/>
		</g>
		<g>
			<path class="st23" d="M896.1,399.2c-12.4,0-22.4-10.1-22.4-22.4s10.1-22.4,22.4-22.4s22.4,10.1,22.4,22.4
				S908.5,399.2,896.1,399.2z M896.1,359.4c-9.6,0-17.4,7.8-17.4,17.4s7.8,17.4,17.4,17.4s17.4-7.8,17.4-17.4
				S905.7,359.4,896.1,359.4z"/>
		</g>
	</g>
	<g>
		<g>
			<circle class="st3" cx="835.1" cy="376.8" r="19.9"/>
		</g>
		<g>
			<path class="st23" d="M835.1,399.2c-12.4,0-22.4-10.1-22.4-22.4s10.1-22.4,22.4-22.4c12.4,0,22.4,10.1,22.4,22.4
				S847.5,399.2,835.1,399.2z M835.1,359.4c-9.6,0-17.4,7.8-17.4,17.4s7.8,17.4,17.4,17.4c9.6,0,17.4-7.8,17.4-17.4
				S844.7,359.4,835.1,359.4z"/>
		</g>
		<g>
			<path class="st23" d="M829.8,384.6c-0.6,0-1.3-0.2-1.8-0.7c-1-1-1-2.6,0-3.5l10.7-10.7c1-1,2.6-1,3.5,0s1,2.6,0,3.5l-10.7,10.7
				C831,384.4,830.4,384.6,829.8,384.6z"/>
		</g>
		<g>
			<path class="st23" d="M840.5,384.6c-0.6,0-1.3-0.2-1.8-0.7L828,373.2c-1-1-1-2.6,0-3.5s2.6-1,3.5,0l10.7,10.7c1,1,1,2.6,0,3.5
				C841.7,384.4,841.1,384.6,840.5,384.6z"/>
		</g>
	</g>
	<g>
		<g>
			<g>
				<g id="g48_16_" transform="translate(155.197863, 1.160267)">
					<g id="path50_16_">
						<path class="st48" d="M710,351.1L710,351.1l12.2-37.2h-24.3L710,351.1L710,351.1z"/>
					</g>
				</g>
				<g id="g56_16_" transform="translate(28.531199, 1.160800)">
					<g id="path58_16_">
						<path class="st16" d="M836.7,351.1l-12.2-37.2h-17L836.7,351.1L836.7,351.1z"/>
					</g>
				</g>
				<g id="g72_16_" transform="translate(29.421866, 280.255593)">
					<g id="path74_16_">
						<path class="st48" d="M806.6,34.8h17l-7.3-22.4c-0.4-1.1-2-1.1-2.4,0L806.6,34.8L806.6,34.8z"/>
					</g>
				</g>
				<g id="g76_16_" transform="translate(247.197860, 1.160800)">
					<g id="path78_16_">
						<path class="st16" d="M618,351.1l12.2-37.2h17L618,351.1L618,351.1z"/>
					</g>
				</g>
				<g id="g80_20_" transform="translate(246.307061, 0.255867)">
					<g id="path82_20_">
						<path class="st49" d="M648.1,314.8L648.1,314.8l3.7,11.3c0.3,1,0,2.2-0.9,2.8l-32,23.1L648.1,314.8L648.1,314.8z"/>
					</g>
				</g>
				<g id="g80_8_" transform="translate(246.307061, 0.255867)">
					<g id="path82_8_">
						<path class="st49" d="M589.7,314.8L589.7,314.8l-3.7,11.3c-0.3,1,0,2.2,0.9,2.8l32,23.1L589.7,314.8L589.7,314.8z"/>
					</g>
				</g>
				<g id="g84_16_" transform="translate(336.973725, 280.255593)">
					<g id="path86_16_">
						<path class="st48" d="M557.5,34.8h-17l7.3-22.4c0.4-1.1,2-1.1,2.4,0L557.5,34.8L557.5,34.8z"/>
					</g>
				</g>
			</g>
		</g>
		<g>
			<g>
				<g>
					<g id="g48_7_" transform="translate(155.197863, 1.160267)">
						<g id="path50_7_">
							<path class="st23" d="M710.4,354.1c-1.1,0-2-0.7-2.4-1.7l-12.4-37.9c-0.2-0.8-0.1-1.6,0.3-2.2c0.5-0.6,1.2-1,2-1h24.9
								c0.8,0,1.6,0.4,2,1c0.5,0.6,0.6,1.5,0.3,2.2l-12.4,37.9C712.4,353.4,711.5,354.1,710.4,354.1z M701.4,316.3l9,27.4l9-27.4
								H701.4z"/>
						</g>
					</g>
					<g id="g56_7_" transform="translate(28.531199, 1.160800)">
						<g id="path58_7_">
							<path class="st23" d="M837.1,354.1c-0.7,0-1.5-0.3-2-1l-29.9-37.9c-0.6-0.8-0.7-1.8-0.3-2.6c0.4-0.9,1.3-1.4,2.2-1.4h17.4
								c1.1,0,2,0.7,2.4,1.7l12.4,37.9c0.4,1.2-0.1,2.4-1.2,3C837.9,354,837.5,354.1,837.1,354.1z M812.3,316.3l17.9,22.7l-7.5-22.7
								H812.3z"/>
						</g>
					</g>
					<g id="g64_7_" transform="translate(0.088533, 0.255867)">
						<g id="path66_7_">
							<path class="st23" d="M865.5,355.1c-0.5,0-1-0.2-1.5-0.5l-32.7-23.5c-1.8-1.3-2.5-3.6-1.9-5.7l3.8-11.5
								c0.3-0.9,1-1.5,1.9-1.7c0.9-0.2,1.8,0.2,2.4,0.9l29.9,37.9c0.8,1,0.7,2.4-0.2,3.3C866.8,354.8,866.2,355.1,865.5,355.1z
								 M836.5,319.9l-2.3,7.1l18.3,13.2L836.5,319.9z"/>
						</g>
					</g>
					<g id="g72_7_" transform="translate(29.421866, 280.255593)">
						<g id="path74_7_">
							<path class="st23" d="M823.7,37.2h-17.4c-0.8,0-1.6-0.4-2-1c-0.5-0.6-0.6-1.5-0.4-2.2l7.5-22.8c0.5-1.6,2-2.6,3.6-2.6
								c0,0,0,0,0,0c1.6,0,3.1,1,3.6,2.6l7.5,22.8c0.2,0.8,0.1,1.6-0.3,2.2C825.3,36.8,824.5,37.2,823.7,37.2z M809.7,32.2h10.5
								l-5.3-16L809.7,32.2z"/>
						</g>
					</g>
					<g id="g76_7_" transform="translate(247.197860, 1.160800)">
						<g id="path78_7_">
							<path class="st23" d="M618.4,354.1c-0.4,0-0.8-0.1-1.2-0.3c-1.1-0.6-1.6-1.8-1.2-3l12.4-37.9c0.3-1,1.3-1.7,2.4-1.7h17.4
								c1,0,1.8,0.5,2.2,1.4s0.3,1.9-0.3,2.6l-29.9,37.9C619.9,353.8,619.2,354.1,618.4,354.1z M632.7,316.3l-7.5,22.7l18-22.7
								H632.7z"/>
						</g>
					</g>
					<g id="g80_7_" transform="translate(246.307061, 0.255867)">
						<g id="path82_7_">
							<path class="st23" d="M619.3,355c-0.7,0-1.3-0.3-1.8-0.8c-0.9-0.9-0.9-2.3-0.2-3.3l29.9-37.8c0.6-0.7,1.5-1.1,2.4-0.9
								c0.9,0.2,1.7,0.8,1.9,1.7l3.8,11.5c0.7,2.1-0.1,4.4-1.8,5.7l-32.7,23.5C620.3,354.9,619.8,355,619.3,355z M648.3,319.9
								l-16,20.3l18.3-13.1L648.3,319.9z"/>
						</g>
					</g>
					<g id="g84_7_" transform="translate(336.973725, 280.255593)">
						<g id="path86_7_">
							<path class="st23" d="M558.5,37.2h-17.4c-0.8,0-1.6-0.4-2-1c-0.5-0.6-0.6-1.5-0.3-2.2l7.5-22.8c0.5-1.5,1.9-2.6,3.6-2.6
								c0,0,0,0,0,0c1.6,0,3.1,1,3.6,2.6l7.5,22.8c0.2,0.8,0.1,1.6-0.3,2.2C560.1,36.8,559.3,37.2,558.5,37.2z M544.5,32.2h10.5
								l-5.3-16L544.5,32.2z"/>
						</g>
					</g>
				</g>
			</g>
		</g>
	</g>
</g>
<g>
	<path class="st1" d="M827.1,410.8h2.7c3.1,0,5,1.7,5,5.1c0,3.4-1.9,5.2-4.9,5.2h-2.8V410.8z M829.7,419.5c2,0,3.2-1.1,3.2-3.7
		c0-2.5-1.2-3.5-3.2-3.5H829v7.2H829.7z"/>
	<path class="st1" d="M836.9,410.8h1.9V421h-1.9V410.8z"/>
	<path class="st1" d="M840.7,419.7l1-1.2c0.7,0.7,1.7,1.1,2.7,1.1c1.1,0,1.7-0.5,1.7-1.3c0-0.8-0.7-1.1-1.6-1.5l-1.4-0.6
		c-1-0.4-2.1-1.2-2.1-2.7c0-1.6,1.4-2.9,3.4-2.9c1.2,0,2.4,0.5,3.2,1.3l-1,1.2c-0.6-0.5-1.4-0.9-2.2-0.9c-1,0-1.6,0.4-1.6,1.2
		c0,0.8,0.8,1.1,1.6,1.4l1.4,0.6c1.2,0.5,2.1,1.3,2.1,2.8c0,1.7-1.4,3-3.7,3C843,421.2,841.7,420.6,840.7,419.7z"/>
	<path class="st1" d="M849.9,410.8h2.2l1.7,5c0.2,0.7,0.4,1.2,0.6,2h0.1c0.2-0.7,0.3-1.3,0.6-2l1.7-5h2.2V421h-1.7v-4.7
		c0-1,0.2-2.4,0.3-3.3h-0.1l-0.8,2.5l-1.7,4.6h-1.2l-1.6-4.6l-0.8-2.5h-0.1c0.1,0.9,0.3,2.3,0.3,3.3v4.7h-1.7V410.8z"/>
	<path class="st1" d="M861.6,410.8h1.9V421h-1.9V410.8z"/>
	<path class="st1" d="M865.4,419.7l1-1.2c0.7,0.7,1.7,1.1,2.7,1.1c1.1,0,1.7-0.5,1.7-1.3c0-0.8-0.7-1.1-1.6-1.5l-1.4-0.6
		c-1-0.4-2.1-1.2-2.1-2.7c0-1.6,1.4-2.9,3.4-2.9c1.2,0,2.4,0.5,3.2,1.3l-1,1.2c-0.6-0.5-1.4-0.9-2.2-0.9c-1,0-1.6,0.4-1.6,1.2
		c0,0.8,0.8,1.1,1.6,1.4l1.4,0.6c1.2,0.5,2.1,1.3,2.1,2.8c0,1.7-1.4,3-3.7,3C867.7,421.2,866.4,420.6,865.4,419.7z"/>
	<path class="st1" d="M873.7,419.7l1-1.2c0.7,0.7,1.7,1.1,2.7,1.1c1.1,0,1.7-0.5,1.7-1.3c0-0.8-0.7-1.1-1.6-1.5l-1.4-0.6
		c-1-0.4-2.1-1.2-2.1-2.7c0-1.6,1.4-2.9,3.4-2.9c1.2,0,2.4,0.5,3.2,1.3l-1,1.2c-0.6-0.5-1.4-0.9-2.2-0.9c-1,0-1.6,0.4-1.6,1.2
		c0,0.8,0.8,1.1,1.6,1.4l1.4,0.6c1.2,0.5,2.1,1.3,2.1,2.8c0,1.7-1.4,3-3.7,3C876,421.2,874.7,420.6,873.7,419.7z"/>
	<path class="st1" d="M885.6,415.8c0-3.3,1.8-5.2,4.5-5.2c2.7,0,4.5,2,4.5,5.2c0,3.3-1.8,5.3-4.5,5.3
		C887.4,421.2,885.6,419.1,885.6,415.8z M892.7,415.8c0-2.3-1-3.6-2.6-3.6c-1.6,0-2.6,1.4-2.6,3.6c0,2.3,1,3.7,2.6,3.7
		C891.7,419.5,892.7,418.1,892.7,415.8z"/>
	<path class="st1" d="M896.7,410.8h3.5c2.1,0,3.8,0.7,3.8,3c0,1.5-0.8,2.5-2,2.9l2.4,4.2h-2.1l-2.2-4h-1.5v4h-1.9V410.8z
		 M899.9,415.5c1.4,0,2.1-0.6,2.1-1.7c0-1.2-0.7-1.6-2.1-1.6h-1.4v3.3H899.9z"/>
	<path class="st1" d="M818.7,432.5c0-3.3,2.1-5.3,4.7-5.3c1.3,0,2.3,0.6,3,1.3l-1,1.1c-0.5-0.5-1.1-0.8-1.9-0.8
		c-1.6,0-2.8,1.4-2.8,3.7c0,2.3,1.1,3.7,2.8,3.7c0.9,0,1.6-0.4,2.2-1l1,1.1c-0.9,1-1.9,1.5-3.2,1.5
		C820.7,437.8,818.7,435.9,818.7,432.5z"/>
	<path class="st1" d="M828.2,427.4h3.5c2.1,0,3.8,0.8,3.8,3c0,1.5-0.8,2.5-2,2.9l2.4,4.2h-2.1l-2.2-4h-1.5v4h-1.9V427.4z
		 M831.5,432.2c1.4,0,2.1-0.6,2.1-1.7c0-1.2-0.7-1.6-2.1-1.6h-1.4v3.3H831.5z"/>
	<path class="st1" d="M837.5,427.4h6.2v1.6h-4.3v2.6h3.7v1.6h-3.7v3h4.5v1.6h-6.3V427.4z"/>
	<path class="st1" d="M847.9,427.4h2.2l3.3,10.2h-2l-0.8-2.7h-3.4l-0.8,2.7h-1.9L847.9,427.4z M847.7,433.4h2.6l-0.3-1.2
		c-0.3-1.1-0.6-2.2-0.9-3.4H849c-0.3,1.1-0.6,2.3-0.9,3.4L847.7,433.4z"/>
	<path class="st1" d="M855.8,429h-2.9v-1.6h7.7v1.6h-2.9v8.6h-1.9V429z"/>
	<path class="st1" d="M862.3,427.4h6.2v1.6h-4.3v2.6h3.7v1.6h-3.7v3h4.5v1.6h-6.3V427.4z"/>
	<path class="st1" d="M873.9,427.4h1.9v10.2h-1.9V427.4z"/>
	<path class="st1" d="M877.6,436.3l1-1.2c0.7,0.7,1.7,1.1,2.7,1.1c1.1,0,1.7-0.5,1.7-1.3c0-0.8-0.7-1.1-1.6-1.5l-1.4-0.6
		c-1-0.4-2.1-1.2-2.1-2.7c0-1.6,1.4-2.9,3.4-2.9c1.2,0,2.4,0.5,3.2,1.3l-1,1.2c-0.6-0.5-1.4-0.9-2.2-0.9c-1,0-1.6,0.4-1.6,1.2
		c0,0.8,0.8,1.1,1.6,1.4l1.4,0.6c1.2,0.5,2.1,1.3,2.1,2.8c0,1.7-1.4,3-3.7,3C879.9,437.8,878.6,437.3,877.6,436.3z"/>
	<path class="st1" d="M885.9,436.3l1-1.2c0.7,0.7,1.7,1.1,2.7,1.1c1.1,0,1.7-0.5,1.7-1.3c0-0.8-0.7-1.1-1.6-1.5l-1.4-0.6
		c-1-0.4-2.1-1.2-2.1-2.7c0-1.6,1.4-2.9,3.4-2.9c1.2,0,2.4,0.5,3.2,1.3l-1,1.2c-0.6-0.5-1.4-0.9-2.2-0.9c-1,0-1.6,0.4-1.6,1.2
		c0,0.8,0.8,1.1,1.6,1.4l1.4,0.6c1.2,0.5,2.1,1.3,2.1,2.8c0,1.7-1.4,3-3.7,3C888.2,437.8,886.9,437.3,885.9,436.3z"/>
	<path class="st1" d="M895.1,433.1v-5.7h1.9v5.9c0,2.2,0.8,2.9,2,2.9c1.2,0,2.1-0.7,2.1-2.9v-5.9h1.8v5.7c0,3.4-1.5,4.7-3.9,4.7
		C896.7,437.8,895.1,436.5,895.1,433.1z"/>
	<path class="st1" d="M905.5,427.4h6.2v1.6h-4.3v2.6h3.7v1.6h-3.7v3h4.5v1.6h-6.3V427.4z"/>
</g>
<g>
	<path class="st1" d="M313.2,136.1c0-3.3,2.1-5.3,4.8-5.3c1.5,0,2.5,0.6,3.1,1.3l-1,1.1c-0.5-0.5-1.1-0.8-2-0.8c-1.8,0-3,1.4-3,3.7
		c0,2.3,1.1,3.7,3.1,3.7c0.5,0,1.1-0.2,1.4-0.4v-2.2h-1.9v-1.5h3.6v4.5c-0.7,0.7-1.9,1.2-3.3,1.2
		C315.2,141.3,313.2,139.4,313.2,136.1z"/>
	<path class="st1" d="M323.6,130.9h1.9v10.2h-1.9V130.9z"/>
	<path class="st1" d="M330.1,132.5h-2.9v-1.6h7.7v1.6h-2.9v8.6h-1.9V132.5z"/>
	<path class="st1" d="M336.6,130.9h1.9v8.6h4.2v1.6h-6.1V130.9z"/>
	<path class="st1" d="M346.5,130.9h2.2l3.3,10.2h-2l-0.8-2.7h-3.4l-0.8,2.7h-1.9L346.5,130.9z M346.2,136.9h2.6l-0.3-1.2
		c-0.3-1.1-0.6-2.2-0.9-3.4h-0.1c-0.3,1.1-0.6,2.3-0.9,3.4L346.2,136.9z"/>
	<path class="st1" d="M353.2,130.9h3.3c2.1,0,3.7,0.6,3.7,2.5c0,1-0.5,1.9-1.4,2.2v0.1c1.1,0.2,2,1,2,2.4c0,2-1.7,3-3.9,3h-3.5
		V130.9z M356.4,135.1c1.4,0,2-0.5,2-1.4c0-1-0.7-1.3-2-1.3h-1.3v2.7H356.4z M356.6,139.7c1.5,0,2.3-0.5,2.3-1.7
		c0-1-0.8-1.5-2.3-1.5h-1.5v3.2H356.6z"/>
	<path class="st1" d="M365.2,136.1c0-3.3,2.1-5.3,4.7-5.3c1.3,0,2.3,0.6,3,1.3l-1,1.1c-0.5-0.5-1.1-0.8-1.9-0.8
		c-1.6,0-2.8,1.4-2.8,3.7c0,2.3,1.1,3.7,2.8,3.7c0.9,0,1.6-0.4,2.2-1l1,1.1c-0.9,1-1.9,1.5-3.2,1.5
		C367.3,141.3,365.2,139.4,365.2,136.1z"/>
	<path class="st1" d="M374.8,130.9h1.9v10.2h-1.9V130.9z"/>
</g>
<g>
	<path class="st1" d="M585.7,137.1c0-3.3,2.1-5.3,4.8-5.3c1.5,0,2.5,0.6,3.1,1.3l-1,1.1c-0.5-0.5-1.1-0.8-2-0.8c-1.8,0-3,1.4-3,3.7
		c0,2.3,1.1,3.7,3.1,3.7c0.5,0,1.1-0.2,1.4-0.4v-2.2h-1.9v-1.5h3.6v4.5c-0.7,0.7-1.9,1.2-3.3,1.2
		C587.7,142.3,585.7,140.4,585.7,137.1z"/>
	<path class="st1" d="M596,131.9h1.9v10.2H596V131.9z"/>
	<path class="st1" d="M602.5,133.5h-2.9v-1.6h7.7v1.6h-2.9v8.6h-1.9V133.5z"/>
	<path class="st1" d="M609.1,131.9h1.9v8.6h4.2v1.6h-6.1V131.9z"/>
	<path class="st1" d="M618.9,131.9h2.2l3.3,10.2h-2l-0.8-2.7h-3.4l-0.8,2.7h-1.9L618.9,131.9z M618.7,137.9h2.6l-0.3-1.2
		c-0.3-1.1-0.6-2.2-0.9-3.4h-0.1c-0.3,1.1-0.6,2.3-0.9,3.4L618.7,137.9z"/>
	<path class="st1" d="M625.7,131.9h3.3c2.1,0,3.7,0.6,3.7,2.5c0,1-0.5,1.9-1.4,2.2v0.1c1.1,0.2,2,1,2,2.4c0,2-1.7,3-3.9,3h-3.5
		V131.9z M628.8,136.1c1.4,0,2-0.5,2-1.4c0-1-0.7-1.3-2-1.3h-1.3v2.7H628.8z M629.1,140.7c1.5,0,2.3-0.5,2.3-1.7
		c0-1-0.8-1.5-2.3-1.5h-1.5v3.2H629.1z"/>
	<path class="st1" d="M637.7,137.1c0-3.3,2.1-5.3,4.7-5.3c1.3,0,2.3,0.6,3,1.3l-1,1.1c-0.5-0.5-1.1-0.8-1.9-0.8
		c-1.6,0-2.8,1.4-2.8,3.7c0,2.3,1.1,3.7,2.8,3.7c0.9,0,1.6-0.4,2.2-1l1,1.1c-0.9,1-1.9,1.5-3.2,1.5
		C639.7,142.3,637.7,140.4,637.7,137.1z"/>
	<path class="st1" d="M647.3,131.9h2.7c3.1,0,5,1.7,5,5.1c0,3.4-1.9,5.2-4.9,5.2h-2.8V131.9z M649.9,140.6c2,0,3.2-1.1,3.2-3.7
		c0-2.5-1.2-3.5-3.2-3.5h-0.7v7.2H649.9z"/>
</g>
<g>
	<path class="st1" d="M682.1,268.4l1-1.2c0.7,0.7,1.7,1.1,2.7,1.1c1.1,0,1.7-0.5,1.7-1.3c0-0.8-0.7-1.1-1.6-1.5l-1.4-0.6
		c-1-0.4-2.1-1.2-2.1-2.7c0-1.6,1.4-2.9,3.4-2.9c1.2,0,2.4,0.5,3.2,1.3l-1,1.2c-0.6-0.5-1.4-0.9-2.2-0.9c-1,0-1.6,0.4-1.6,1.2
		c0,0.8,0.8,1.1,1.6,1.4l1.4,0.6c1.2,0.5,2.1,1.3,2.1,2.8c0,1.7-1.4,3-3.7,3C684.3,269.9,683,269.4,682.1,268.4z"/>
	<path class="st1" d="M691.3,259.5h6.2v1.6h-4.3v2.6h3.7v1.6h-3.7v3h4.5v1.6h-6.3V259.5z"/>
	<path class="st1" d="M699.2,264.7c0-3.3,2.1-5.3,4.7-5.3c1.3,0,2.3,0.6,3,1.3l-1,1.1c-0.5-0.5-1.1-0.8-1.9-0.8
		c-1.6,0-2.8,1.4-2.8,3.7c0,2.3,1.1,3.7,2.8,3.7c0.9,0,1.6-0.4,2.2-1l1,1.1c-0.9,1-1.9,1.5-3.2,1.5
		C701.3,269.9,699.2,268.1,699.2,264.7z"/>
	<path class="st1" d="M708.5,265.2v-5.7h1.9v5.9c0,2.2,0.8,2.9,2,2.9s2.1-0.7,2.1-2.9v-5.9h1.8v5.7c0,3.4-1.5,4.7-3.9,4.7
		C710,269.9,708.5,268.6,708.5,265.2z"/>
	<path class="st1" d="M718.8,259.5h3.5c2.1,0,3.8,0.7,3.8,3c0,1.5-0.8,2.5-2,2.9l2.4,4.2h-2.1l-2.2-4h-1.5v4h-1.9V259.5z
		 M722.1,264.3c1.4,0,2.1-0.6,2.1-1.7c0-1.2-0.7-1.6-2.1-1.6h-1.4v3.3H722.1z"/>
	<path class="st1" d="M728.1,259.5h1.9v10.2h-1.9V259.5z"/>
	<path class="st1" d="M734.6,261.1h-2.9v-1.6h7.7v1.6h-2.9v8.6h-1.9V261.1z"/>
	<path class="st1" d="M742.6,266l-3.1-6.4h2l1.1,2.6c0.3,0.8,0.6,1.5,0.9,2.2h0.1c0.3-0.8,0.6-1.5,0.9-2.2l1.1-2.6h1.9l-3.1,6.4v3.8
		h-1.9V266z"/>
	<path class="st1" d="M751.9,259.5h2.7c3.1,0,5,1.7,5,5.1c0,3.4-1.9,5.2-4.9,5.2h-2.8V259.5z M754.5,268.2c2,0,3.2-1.1,3.2-3.7
		c0-2.5-1.2-3.5-3.2-3.5h-0.7v7.2H754.5z"/>
	<path class="st1" d="M763.6,259.5h2.2l3.3,10.2h-2l-0.8-2.7h-3.4l-0.8,2.7h-1.9L763.6,259.5z M763.3,265.6h2.6l-0.3-1.2
		c-0.3-1.1-0.6-2.2-0.9-3.4h-0.1c-0.3,1.1-0.6,2.3-0.9,3.4L763.3,265.6z"/>
	<path class="st1" d="M769.6,268.4l1-1.2c0.7,0.7,1.7,1.1,2.7,1.1c1.1,0,1.7-0.5,1.7-1.3c0-0.8-0.7-1.1-1.6-1.5l-1.4-0.6
		c-1-0.4-2.1-1.2-2.1-2.7c0-1.6,1.4-2.9,3.4-2.9c1.2,0,2.4,0.5,3.2,1.3l-1,1.2c-0.6-0.5-1.4-0.9-2.2-0.9c-1,0-1.6,0.4-1.6,1.2
		c0,0.8,0.8,1.1,1.6,1.4l1.4,0.6c1.2,0.5,2.1,1.3,2.1,2.8c0,1.7-1.4,3-3.7,3C771.9,269.9,770.6,269.4,769.6,268.4z"/>
	<path class="st1" d="M778.9,259.5h1.9v4.1h4.1v-4.1h1.9v10.2h-1.9v-4.5h-4.1v4.5h-1.9V259.5z"/>
	<path class="st1" d="M789.3,259.5h3.3c2.1,0,3.7,0.6,3.7,2.5c0,1-0.5,1.9-1.4,2.2v0.1c1.1,0.2,2,1,2,2.4c0,2-1.7,3-3.9,3h-3.5
		V259.5z M792.4,263.7c1.4,0,2-0.5,2-1.4c0-1-0.7-1.3-2-1.3h-1.3v2.7H792.4z M792.6,268.3c1.5,0,2.3-0.5,2.3-1.7
		c0-1-0.8-1.5-2.3-1.5h-1.5v3.2H792.6z"/>
	<path class="st1" d="M798.1,264.6c0-3.3,1.8-5.2,4.5-5.2s4.5,2,4.5,5.2c0,3.3-1.8,5.3-4.5,5.3S798.1,267.9,798.1,264.6z
		 M805.2,264.6c0-2.3-1-3.6-2.6-3.6c-1.6,0-2.6,1.4-2.6,3.6c0,2.3,1,3.7,2.6,3.7C804.2,268.3,805.2,266.9,805.2,264.6z"/>
	<path class="st1" d="M811,259.5h2.2l3.3,10.2h-2l-0.8-2.7h-3.4l-0.8,2.7h-1.9L811,259.5z M810.8,265.6h2.6l-0.3-1.2
		c-0.3-1.1-0.6-2.2-0.9-3.4h-0.1c-0.3,1.1-0.6,2.3-0.9,3.4L810.8,265.6z"/>
	<path class="st1" d="M817.8,259.5h3.5c2.1,0,3.8,0.7,3.8,3c0,1.5-0.8,2.5-2,2.9l2.4,4.2h-2.1l-2.2-4h-1.5v4h-1.9V259.5z
		 M821.1,264.3c1.4,0,2.1-0.6,2.1-1.7c0-1.2-0.7-1.6-2.1-1.6h-1.4v3.3H821.1z"/>
	<path class="st1" d="M827.1,259.5h2.7c3.1,0,5,1.7,5,5.1c0,3.4-1.9,5.2-4.9,5.2h-2.8V259.5z M829.7,268.2c2,0,3.2-1.1,3.2-3.7
		c0-2.5-1.2-3.5-3.2-3.5H829v7.2H829.7z"/>
	<path class="st1" d="M838.7,259.5h2l1.4,5.1c0.3,1.2,0.5,2.2,0.9,3.3h0.1c0.3-1.2,0.6-2.2,0.9-3.3l1.5-5.1h1.9l-3.2,10.2h-2.2
		L838.7,259.5z"/>
	<path class="st1" d="M848.5,259.5h1.9v10.2h-1.9V259.5z"/>
	<path class="st1" d="M853,259.5h6.2v1.6h-4.3v2.6h3.7v1.6h-3.7v3h4.5v1.6H853V259.5z"/>
	<path class="st1" d="M860.4,259.5h1.9l0.9,5.2c0.2,1.1,0.3,2.2,0.4,3.3h0.1c0.2-1.2,0.4-2.3,0.6-3.3l1.2-5.2h1.8l1.2,5.2
		c0.2,1.1,0.5,2.2,0.7,3.3h0.1c0.1-1.2,0.3-2.3,0.4-3.3l0.9-5.2h1.8l-2,10.2H868l-1.2-5.4c-0.2-0.8-0.2-1.5-0.4-2.5h-0.1
		c-0.1,0.9-0.2,1.7-0.4,2.5l-1.2,5.4h-2.3L860.4,259.5z"/>
</g>
<g>
	<path class="st1" d="M630,421.4l1-1.2c0.7,0.7,1.7,1.1,2.7,1.1c1.1,0,1.7-0.5,1.7-1.3c0-0.8-0.7-1.1-1.6-1.5l-1.4-0.6
		c-1-0.4-2.1-1.2-2.1-2.7c0-1.6,1.4-2.9,3.4-2.9c1.2,0,2.4,0.5,3.2,1.3l-1,1.2c-0.6-0.5-1.4-0.9-2.2-0.9c-1,0-1.6,0.4-1.6,1.2
		c0,0.8,0.8,1.1,1.6,1.4l1.4,0.6c1.2,0.5,2.1,1.3,2.1,2.8c0,1.7-1.4,3-3.7,3C632.2,422.9,630.9,422.4,630,421.4z"/>
	<path class="st1" d="M639.2,412.5h6.2v1.6h-4.3v2.6h3.7v1.6h-3.7v3h4.5v1.6h-6.3V412.5z"/>
	<path class="st1" d="M647.1,417.7c0-3.3,2.1-5.3,4.7-5.3c1.3,0,2.3,0.6,3,1.3l-1,1.1c-0.5-0.5-1.1-0.8-1.9-0.8
		c-1.6,0-2.8,1.4-2.8,3.7c0,2.3,1.1,3.7,2.8,3.7c0.9,0,1.6-0.4,2.2-1l1,1.1c-0.9,1-1.9,1.5-3.2,1.5
		C649.2,422.9,647.1,421.1,647.1,417.7z"/>
	<path class="st1" d="M656.4,418.3v-5.7h1.9v5.9c0,2.2,0.8,2.9,2,2.9c1.2,0,2.1-0.7,2.1-2.9v-5.9h1.8v5.7c0,3.4-1.5,4.7-3.9,4.7
		C657.9,422.9,656.4,421.6,656.4,418.3z"/>
	<path class="st1" d="M666.7,412.5h3.4c2.1,0,3.8,0.8,3.8,3c0,1.5-0.8,2.5-2,2.9l2.4,4.2h-2.1l-2.2-4h-1.5v4h-1.9V412.5z M670,417.3
		c1.4,0,2.1-0.6,2.1-1.7c0-1.2-0.8-1.6-2.1-1.6h-1.4v3.3H670z"/>
	<path class="st1" d="M676,412.5h1.9v10.2H676V412.5z"/>
	<path class="st1" d="M682.5,414.1h-2.9v-1.6h7.7v1.6h-2.9v8.6h-1.9V414.1z"/>
	<path class="st1" d="M690.5,419l-3.1-6.4h2l1.1,2.6c0.3,0.7,0.6,1.5,0.9,2.2h0.1c0.3-0.8,0.6-1.5,0.9-2.2l1.1-2.6h1.9l-3.1,6.4v3.8
		h-1.9V419z"/>
	<path class="st1" d="M701.9,414.1h-2.9v-1.6h7.7v1.6h-2.9v8.6h-1.9V414.1z"/>
	<path class="st1" d="M708.4,412.5h6.2v1.6h-4.3v2.6h3.7v1.6h-3.7v3h4.5v1.6h-6.3V412.5z"/>
	<path class="st1" d="M718.8,412.5h2.2l3.3,10.2h-2l-0.8-2.7h-3.4l-0.8,2.7h-1.9L718.8,412.5z M718.6,418.6h2.6l-0.3-1.2
		c-0.3-1.1-0.6-2.2-0.9-3.4h-0.1c-0.3,1.1-0.6,2.3-0.9,3.4L718.6,418.6z"/>
	<path class="st1" d="M725.6,412.5h2.2l1.7,5c0.2,0.7,0.4,1.2,0.6,2h0.1c0.2-0.7,0.3-1.3,0.6-2l1.7-5h2.2v10.2H733v-4.7
		c0-1,0.2-2.4,0.3-3.3h-0.1l-0.8,2.5l-1.7,4.6h-1.2l-1.6-4.6l-0.8-2.5H727c0.1,0.9,0.3,2.3,0.3,3.3v4.7h-1.7V412.5z"/>
</g>
<g>
	<path class="st1" d="M718.9,30.9h2.7c3.1,0,5,1.7,5,5.1c0,3.4-1.9,5.2-4.9,5.2h-2.8V30.9z M721.5,39.6c2,0,3.2-1.1,3.2-3.7
		c0-2.5-1.2-3.5-3.2-3.5h-0.7v7.2H721.5z"/>
	<path class="st1" d="M728.7,30.9h6.2v1.6h-4.3v2.6h3.7v1.6h-3.7v3h4.5v1.6h-6.3V30.9z"/>
	<path class="st1" d="M737.1,30.9h3.2c2.3,0,4,0.8,4,3.2c0,2.3-1.7,3.3-3.9,3.3H739v3.7h-1.9V30.9z M740.3,35.9
		c1.5,0,2.2-0.6,2.2-1.8c0-1.2-0.8-1.7-2.3-1.7H739v3.5H740.3z"/>
	<path class="st1" d="M746.2,30.9h1.9v8.6h4.2v1.6h-6.1V30.9z"/>
	<path class="st1" d="M753.1,36c0-3.3,1.8-5.2,4.5-5.2c2.7,0,4.5,2,4.5,5.2c0,3.3-1.8,5.3-4.5,5.3C754.9,41.3,753.1,39.3,753.1,36z
		 M760.2,36c0-2.3-1-3.6-2.6-3.6c-1.6,0-2.6,1.4-2.6,3.6c0,2.3,1,3.7,2.6,3.7C759.2,39.7,760.2,38.3,760.2,36z"/>
	<path class="st1" d="M765.6,37.4l-3.1-6.4h2l1.1,2.6c0.3,0.7,0.6,1.5,0.9,2.2h0.1c0.3-0.8,0.6-1.5,0.9-2.2l1.1-2.6h1.9l-3.1,6.4
		v3.8h-1.9V37.4z"/>
</g>
<g>
	<path class="st1" d="M425.4,30.9h2.2l1.7,5c0.2,0.7,0.4,1.2,0.6,2h0.1c0.2-0.7,0.3-1.3,0.6-2l1.7-5h2.2v10.2h-1.7v-4.7
		c0-1,0.2-2.4,0.3-3.3H433l-0.8,2.5l-1.7,4.6h-1.2l-1.6-4.6l-0.8-2.5h-0.1c0.1,0.9,0.3,2.3,0.3,3.3v4.7h-1.7V30.9z"/>
	<path class="st1" d="M437.1,30.9h6.2v1.6H439v2.6h3.7v1.6H439v3h4.5v1.6h-6.3V30.9z"/>
	<path class="st1" d="M445.5,30.9h3.5c2.1,0,3.8,0.7,3.8,3c0,1.5-0.8,2.5-2,2.9l2.4,4.2h-2.1l-2.2-4h-1.5v4h-1.9V30.9z M448.8,35.7
		c1.4,0,2.1-0.6,2.1-1.7c0-1.2-0.7-1.6-2.1-1.6h-1.4v3.3H448.8z"/>
	<path class="st1" d="M454.3,36.1c0-3.3,2.1-5.3,4.8-5.3c1.5,0,2.5,0.6,3.1,1.3l-1,1.1c-0.5-0.5-1.1-0.8-2-0.8c-1.8,0-3,1.4-3,3.7
		c0,2.3,1.1,3.7,3.1,3.7c0.5,0,1.1-0.2,1.4-0.4v-2.2h-1.9v-1.5h3.6v4.5c-0.7,0.7-1.9,1.2-3.3,1.2C456.4,41.3,454.3,39.5,454.3,36.1z
		"/>
	<path class="st1" d="M464.7,30.9h6.2v1.6h-4.3v2.6h3.7v1.6h-3.7v3h4.5v1.6h-6.3V30.9z"/>
	<path class="st1" d="M476.3,30.9h3.4c2.1,0,3.8,0.7,3.8,3c0,1.5-0.8,2.5-2,2.9l2.4,4.2h-2.1l-2.2-4h-1.5v4h-1.9V30.9z M479.6,35.7
		c1.4,0,2.1-0.6,2.1-1.7c0-1.2-0.8-1.6-2.1-1.6h-1.4v3.3H479.6z"/>
	<path class="st1" d="M485.6,30.9h6.2v1.6h-4.3v2.6h3.7v1.6h-3.7v3h4.5v1.6h-6.3V30.9z"/>
	<path class="st1" d="M497.2,41.3c-2.2-0.4-3.7-2.3-3.7-5.3c0-3.3,1.8-5.2,4.5-5.2c2.7,0,4.5,2,4.5,5.2c0,2.8-1.3,4.7-3.4,5.2
		c0.5,0.8,1.4,1.2,2.4,1.2c0.5,0,0.8-0.1,1.1-0.1l0.3,1.3c-0.3,0.2-0.9,0.3-1.7,0.3C499.2,43.9,497.8,42.8,497.2,41.3z M500.6,36
		c0-2.3-1-3.6-2.6-3.6c-1.6,0-2.6,1.4-2.6,3.6c0,2.4,1,3.8,2.6,3.8C499.6,39.8,500.6,38.4,500.6,36z"/>
	<path class="st1" d="M504.5,36.6v-5.7h1.9v5.9c0,2.2,0.8,2.9,2,2.9c1.2,0,2.1-0.7,2.1-2.9v-5.9h1.8v5.7c0,3.4-1.5,4.7-3.9,4.7
		C506.1,41.3,504.5,40,504.5,36.6z"/>
	<path class="st1" d="M514.9,30.9h6.2v1.6h-4.3v2.6h3.7v1.6h-3.7v3h4.5v1.6h-6.3V30.9z"/>
	<path class="st1" d="M522.6,39.8l1-1.2c0.7,0.7,1.7,1.1,2.7,1.1c1.1,0,1.7-0.5,1.7-1.3c0-0.8-0.7-1.1-1.6-1.5l-1.4-0.6
		c-1-0.4-2.1-1.2-2.1-2.7c0-1.6,1.4-2.9,3.4-2.9c1.2,0,2.4,0.5,3.2,1.3l-1,1.2c-0.6-0.5-1.4-0.9-2.2-0.9c-1,0-1.6,0.4-1.6,1.2
		c0,0.8,0.8,1.1,1.6,1.4l1.4,0.6c1.2,0.5,2.1,1.3,2.1,2.8c0,1.7-1.4,3-3.7,3C524.9,41.3,523.6,40.8,522.6,39.8z"/>
	<path class="st1" d="M533.6,32.5h-2.9v-1.6h7.7v1.6h-2.9v8.6h-1.9V32.5z"/>
</g>
<g>
	<path class="st1" d="M395,383.5h3.4c2.1,0,3.8,0.7,3.8,3c0,1.5-0.8,2.5-2,2.9l2.4,4.2h-2.1l-2.2-4h-1.5v4H395V383.5z M398.3,388.3
		c1.4,0,2.1-0.6,2.1-1.7c0-1.2-0.7-1.6-2.1-1.6h-1.4v3.3H398.3z"/>
	<path class="st1" d="M404.3,383.5h6.2v1.6h-4.3v2.6h3.7v1.6h-3.7v3h4.5v1.6h-6.3V383.5z"/>
	<path class="st1" d="M411.4,383.5h2l1.4,5.1c0.3,1.2,0.5,2.2,0.9,3.3h0.1c0.3-1.2,0.6-2.2,0.9-3.3l1.5-5.1h1.9l-3.2,10.2h-2.2
		L411.4,383.5z"/>
	<path class="st1" d="M421.2,383.5h1.9v10.2h-1.9V383.5z"/>
	<path class="st1" d="M425.7,383.5h6.2v1.6h-4.3v2.6h3.7v1.6h-3.7v3h4.5v1.6h-6.3V383.5z"/>
	<path class="st1" d="M433.1,383.5h1.9l0.9,5.2c0.2,1.1,0.3,2.2,0.4,3.3h0.1c0.2-1.2,0.4-2.3,0.6-3.3l1.2-5.2h1.8l1.2,5.2
		c0.2,1.1,0.5,2.2,0.7,3.3h0.1c0.1-1.2,0.3-2.3,0.4-3.3l0.9-5.2h1.8l-2,10.2h-2.4l-1.2-5.4c-0.2-0.8-0.2-1.5-0.4-2.5H439
		c-0.1,0.9-0.2,1.7-0.4,2.5l-1.2,5.4h-2.3L433.1,383.5z"/>
	<path class="st1" d="M451.8,383.5h2.2l3.3,10.2h-2l-0.8-2.7h-3.4l-0.8,2.7h-1.9L451.8,383.5z M451.6,389.5h2.6l-0.3-1.2
		c-0.3-1.1-0.6-2.2-0.9-3.4h-0.1c-0.3,1.1-0.6,2.3-0.9,3.4L451.6,389.5z"/>
	<path class="st1" d="M458.6,383.5h3.2c2.3,0,4,0.8,4,3.2c0,2.3-1.7,3.3-3.9,3.3h-1.4v3.7h-1.9V383.5z M461.7,388.5
		c1.5,0,2.2-0.6,2.2-1.8c0-1.2-0.8-1.7-2.3-1.7h-1.2v3.5H461.7z"/>
	<path class="st1" d="M467.7,383.5h3.2c2.3,0,4,0.8,4,3.2c0,2.3-1.7,3.3-3.9,3.3h-1.4v3.7h-1.9V383.5z M470.8,388.5
		c1.5,0,2.2-0.6,2.2-1.8c0-1.2-0.8-1.7-2.3-1.7h-1.2v3.5H470.8z"/>
</g>
<g>
	<path class="st1" d="M215.9,383.5h2.7c3.1,0,5,1.7,5,5.1c0,3.4-1.9,5.2-4.9,5.2h-2.8V383.5z M218.5,392.2c2,0,3.2-1.1,3.2-3.7
		c0-2.5-1.2-3.5-3.2-3.5h-0.7v7.2H218.5z"/>
	<path class="st1" d="M225.7,383.5h6.2v1.6h-4.3v2.6h3.7v1.6h-3.7v3h4.5v1.6h-6.3V383.5z"/>
	<path class="st1" d="M232.8,383.5h2l1.4,5.1c0.3,1.2,0.5,2.2,0.9,3.3h0.1c0.3-1.2,0.6-2.2,0.9-3.3l1.5-5.1h1.9l-3.2,10.2h-2.2
		L232.8,383.5z"/>
	<path class="st1" d="M242.6,383.5h6.2v1.6h-4.3v2.6h3.7v1.6h-3.7v3h4.5v1.6h-6.3V383.5z"/>
	<path class="st1" d="M251,383.5h1.9v8.6h4.2v1.6H251V383.5z"/>
	<path class="st1" d="M257.9,388.6c0-3.3,1.8-5.2,4.5-5.2c2.7,0,4.5,2,4.5,5.2c0,3.3-1.8,5.3-4.5,5.3
		C259.7,393.9,257.9,391.9,257.9,388.6z M265,388.6c0-2.3-1-3.6-2.6-3.6c-1.6,0-2.6,1.4-2.6,3.6c0,2.3,1,3.7,2.6,3.7
		C264,392.3,265,390.9,265,388.6z"/>
	<path class="st1" d="M269,383.5h3.2c2.3,0,4,0.8,4,3.2c0,2.3-1.7,3.3-3.9,3.3h-1.4v3.7H269V383.5z M272.1,388.5
		c1.5,0,2.2-0.6,2.2-1.8c0-1.2-0.8-1.7-2.3-1.7h-1.2v3.5H272.1z"/>
	<path class="st1" d="M278.1,383.5h6.2v1.6H280v2.6h3.7v1.6H280v3h4.5v1.6h-6.3V383.5z"/>
	<path class="st1" d="M286.5,383.5h3.4c2.1,0,3.8,0.7,3.8,3c0,1.5-0.8,2.5-2,2.9l2.4,4.2h-2.1l-2.2-4h-1.5v4h-1.9V383.5z
		 M289.8,388.3c1.4,0,2.1-0.6,2.1-1.7c0-1.2-0.7-1.6-2.1-1.6h-1.4v3.3H289.8z"/>
</g>
<g>
	<path class="st1" d="M152.6,36.1c0-3.3,2.1-5.3,4.7-5.3c1.3,0,2.3,0.6,3,1.3l-1,1.1c-0.5-0.5-1.1-0.8-1.9-0.8
		c-1.6,0-2.8,1.4-2.8,3.7c0,2.3,1.1,3.7,2.8,3.7c0.9,0,1.6-0.4,2.2-1l1,1.1c-0.9,1-1.9,1.5-3.2,1.5
		C154.6,41.3,152.6,39.5,152.6,36.1z"/>
	<path class="st1" d="M161.1,36c0-3.3,1.8-5.2,4.5-5.2c2.7,0,4.5,2,4.5,5.2c0,3.3-1.8,5.3-4.5,5.3C163,41.3,161.1,39.3,161.1,36z
		 M168.2,36c0-2.3-1-3.6-2.6-3.6c-1.6,0-2.6,1.4-2.6,3.6c0,2.3,1,3.7,2.6,3.7C167.2,39.7,168.2,38.3,168.2,36z"/>
	<path class="st1" d="M172.2,30.9h2.7c3.1,0,5,1.7,5,5.1c0,3.4-1.9,5.2-4.9,5.2h-2.8V30.9z M174.8,39.6c2,0,3.2-1.1,3.2-3.7
		c0-2.5-1.2-3.5-3.2-3.5h-0.7v7.2H174.8z"/>
	<path class="st1" d="M182,30.9h6.2v1.6h-4.3v2.6h3.7v1.6h-3.7v3h4.5v1.6H182V30.9z"/>
	<path class="st1" d="M193.1,36.1c0-3.3,2.1-5.3,4.7-5.3c1.3,0,2.3,0.6,3,1.3l-1,1.1c-0.5-0.5-1.1-0.8-1.9-0.8
		c-1.6,0-2.8,1.4-2.8,3.7c0,2.3,1.1,3.7,2.8,3.7c0.9,0,1.6-0.4,2.2-1l1,1.1c-0.9,1-1.9,1.5-3.2,1.5
		C195.1,41.3,193.1,39.5,193.1,36.1z"/>
	<path class="st1" d="M201.6,36c0-3.3,1.8-5.2,4.5-5.2c2.7,0,4.5,2,4.5,5.2c0,3.3-1.8,5.3-4.5,5.3C203.4,41.3,201.6,39.3,201.6,36z
		 M208.7,36c0-2.3-1-3.6-2.6-3.6c-1.6,0-2.6,1.4-2.6,3.6c0,2.3,1,3.7,2.6,3.7C207.7,39.7,208.7,38.3,208.7,36z"/>
	<path class="st1" d="M212.7,30.9h2.2l1.7,5c0.2,0.7,0.4,1.2,0.6,2h0.1c0.2-0.7,0.3-1.3,0.6-2l1.7-5h2.2v10.2H220v-4.7
		c0-1,0.2-2.4,0.3-3.3h-0.1l-0.8,2.5l-1.7,4.6h-1.2l-1.6-4.6l-0.8-2.5h-0.1c0.1,0.9,0.3,2.3,0.3,3.3v4.7h-1.7V30.9z"/>
	<path class="st1" d="M224.3,30.9h2.2l1.7,5c0.2,0.7,0.4,1.2,0.6,2h0.1c0.2-0.7,0.3-1.3,0.6-2l1.7-5h2.2v10.2h-1.7v-4.7
		c0-1,0.2-2.4,0.3-3.3h-0.1l-0.8,2.5l-1.7,4.6h-1.2l-1.6-4.6l-0.8-2.5h-0.1c0.1,0.9,0.3,2.3,0.3,3.3v4.7h-1.7V30.9z"/>
	<path class="st1" d="M236,30.9h1.9v10.2H236V30.9z"/>
	<path class="st1" d="M242.5,32.5h-2.9v-1.6h7.7v1.6h-2.9v8.6h-1.9V32.5z"/>
</g>
<g>
	<path class="st1" d="M257.2,587.6c-0.1-3.3,2-5.4,4.7-5.4c1.5,0,2.5,0.6,3.1,1.2l-1,1.2c-0.5-0.5-1.1-0.8-2.1-0.8
		c-1.8,0-3,1.4-2.9,3.7c0,2.3,1.1,3.7,3.2,3.6c0.5,0,1.1-0.2,1.4-0.5l0-2.2l-1.9,0l0-1.5l3.6-0.1l0.1,4.5c-0.7,0.7-1.9,1.3-3.2,1.3
		C259.3,592.8,257.2,591,257.2,587.6z"/>
	<path class="st1" d="M267.4,582.3l1.9,0l0.2,10.2l-1.9,0L267.4,582.3z"/>
	<path class="st1" d="M274,583.7l-2.9,0.1l0-1.6l7.7-0.1l0,1.6l-2.9,0.1l0.2,8.6l-1.9,0L274,583.7z"/>
	<path class="st1" d="M280.5,582.1l1.9,0l0.2,8.6l4.2-0.1l0,1.6l-6.1,0.1L280.5,582.1z"/>
	<path class="st1" d="M290.3,581.9l2.2,0L296,592l-2,0l-0.8-2.7l-3.4,0.1l-0.7,2.7l-1.9,0L290.3,581.9z M290.2,587.9l2.6,0l-0.4-1.2
		c-0.3-1.1-0.7-2.2-1-3.3l-0.1,0c-0.2,1.1-0.5,2.3-0.8,3.4L290.2,587.9z"/>
	<path class="st1" d="M297.1,581.8l3.3-0.1c2.1,0,3.7,0.6,3.7,2.4c0,1-0.5,1.9-1.4,2.2l0,0.1c1.1,0.2,2,1,2,2.4c0,2-1.6,3-3.9,3.1
		l-3.5,0.1L297.1,581.8z M300.3,585.9c1.4,0,2-0.6,2-1.5c0-1-0.7-1.3-2-1.3l-1.3,0l0,2.7L300.3,585.9z M300.6,590.5
		c1.5,0,2.3-0.6,2.3-1.7c0-1-0.8-1.5-2.3-1.5l-1.5,0l0.1,3.2L300.6,590.5z"/>
	<path class="st1" d="M309.1,590.4l1-1.2c0.7,0.7,1.8,1.1,2.8,1.1c1.1,0,1.7-0.5,1.7-1.3c0-0.8-0.7-1.1-1.6-1.4l-1.4-0.6
		c-1-0.4-2.1-1.2-2.1-2.7c0-1.6,1.4-2.9,3.4-3c1.2,0,2.4,0.5,3.2,1.2l-1,1.2c-0.6-0.5-1.4-0.8-2.2-0.8c-1,0-1.6,0.5-1.5,1.2
		c0,0.8,0.8,1,1.6,1.4l1.4,0.5c1.2,0.5,2.1,1.2,2.1,2.7c0,1.7-1.3,3.1-3.6,3.1C311.4,591.9,310.1,591.4,309.1,590.4z"/>
	<path class="st1" d="M318.2,581.4l6.2-0.1l0,1.6l-4.3,0.1l0,2.6l3.7-0.1l0,1.6l-3.7,0.1l0.1,3l4.5-0.1l0,1.6l-6.3,0.1L318.2,581.4z
		"/>
	<path class="st1" d="M326.2,586.4c-0.1-3.3,2-5.4,4.6-5.4c1.3,0,2.3,0.6,3,1.2l-1,1.2c-0.5-0.5-1.2-0.8-2-0.8
		c-1.6,0-2.8,1.4-2.7,3.7c0,2.3,1.1,3.7,2.8,3.6c0.9,0,1.6-0.4,2.1-1l1,1.1c-0.8,1-1.9,1.5-3.2,1.5
		C328.3,591.6,326.2,589.8,326.2,586.4z"/>
	<path class="st1" d="M335.4,586.8l-0.1-5.7l1.9,0l0.1,5.9c0,2.2,0.9,2.9,2.1,2.9s2.1-0.8,2-3l-0.1-5.9l1.8,0l0.1,5.7
		c0.1,3.4-1.4,4.7-3.8,4.8C337,591.4,335.5,590.1,335.4,586.8z"/>
	<path class="st1" d="M345.7,580.9l3.4-0.1c2.1,0,3.8,0.7,3.8,3c0,1.5-0.8,2.5-2,3l2.5,4.2l-2.1,0l-2.3-3.9l-1.5,0l0.1,4l-1.9,0
		L345.7,580.9z M349,585.6c1.4,0,2.1-0.6,2.1-1.8c0-1.2-0.8-1.5-2.2-1.5l-1.4,0l0.1,3.3L349,585.6z"/>
	<path class="st1" d="M355,580.7l1.9,0l0.2,10.2l-1.9,0L355,580.7z"/>
	<path class="st1" d="M361.5,582.2l-2.9,0.1l0-1.6l7.7-0.1l0,1.6l-2.9,0.1l0.2,8.6l-1.9,0L361.5,582.2z"/>
	<path class="st1" d="M369.6,586.9l-3.2-6.4l2,0l1.1,2.6c0.3,0.7,0.6,1.5,0.9,2.2l0.1,0c0.3-0.8,0.6-1.5,0.9-2.3l1-2.6l1.9,0l-3,6.5
		l0.1,3.8l-1.9,0L369.6,586.9z"/>
	<path class="st1" d="M380.9,581.8l-2.9,0.1l0-1.6l7.7-0.1l0,1.6l-2.9,0.1l0.2,8.6l-1.9,0L380.9,581.8z"/>
	<path class="st1" d="M387.4,580.1l6.2-0.1l0,1.6l-4.3,0.1l0,2.6l3.7-0.1l0,1.6l-3.7,0.1l0.1,3l4.5-0.1l0,1.6l-6.3,0.1L387.4,580.1z
		"/>
	<path class="st1" d="M395.3,588.9l1-1.2c0.7,0.7,1.8,1.1,2.8,1.1c1.1,0,1.7-0.5,1.7-1.3c0-0.8-0.7-1.1-1.6-1.4l-1.4-0.6
		c-1-0.4-2.1-1.2-2.1-2.7c0-1.6,1.4-2.9,3.4-3c1.2,0,2.4,0.5,3.2,1.2l-1,1.2c-0.7-0.5-1.4-0.8-2.2-0.8c-1,0-1.6,0.5-1.5,1.2
		c0,0.8,0.8,1,1.6,1.4l1.4,0.5c1.2,0.5,2.1,1.2,2.1,2.7c0,1.7-1.3,3.1-3.6,3.1C397.6,590.4,396.2,589.9,395.3,588.9z"/>
	<path class="st1" d="M406.1,581.4l-2.9,0.1l0-1.6l7.7-0.1l0,1.6l-2.9,0.1l0.2,8.6l-1.9,0L406.1,581.4z"/>
	<path class="st1" d="M412.6,579.7l1.9,0l0.2,10.2l-1.9,0L412.6,579.7z"/>
	<path class="st1" d="M417.1,579.6l2,0l3.2,5.6c0.4,0.7,0.7,1.5,1.1,2.3l0.1,0c-0.1-1.1-0.3-2.3-0.3-3.5l-0.1-4.5l1.7,0l0.2,10.2
		l-2,0l-3.2-5.6c-0.4-0.7-0.7-1.5-1.1-2.3l-0.1,0c0.1,1.1,0.3,2.3,0.3,3.5l0.1,4.5l-1.7,0L417.1,579.6z"/>
	<path class="st1" d="M426.9,584.6c-0.1-3.3,2-5.4,4.7-5.4c1.5,0,2.5,0.6,3.1,1.2l-1,1.2c-0.5-0.5-1.1-0.8-2.1-0.8
		c-1.8,0-3,1.4-2.9,3.7c0,2.3,1.1,3.7,3.2,3.6c0.5,0,1.1-0.2,1.4-0.5l0-2.2l-1.9,0l0-1.5l3.6-0.1l0.1,4.5c-0.7,0.7-1.9,1.3-3.2,1.3
		C429,589.8,427,588,426.9,584.6z"/>
	<path class="st1" d="M278.5,598.7l1.9,0l0.2,10.2l-1.9,0L278.5,598.7z"/>
	<path class="st1" d="M283,598.7l2,0l3.2,5.6c0.4,0.7,0.7,1.5,1.1,2.3l0.1,0c-0.1-1.1-0.3-2.3-0.3-3.5l-0.1-4.5l1.7,0l0.2,10.2l-2,0
		l-3.2-5.6c-0.4-0.7-0.7-1.5-1.1-2.3l-0.1,0c0.1,1.1,0.3,2.3,0.3,3.5l0.1,4.5l-1.7,0L283,598.7z"/>
	<path class="st1" d="M296.4,598.4l3.2-0.1c2.3,0,4,0.7,4,3.1c0,2.3-1.6,3.3-3.8,3.4l-1.4,0l0.1,3.7l-1.9,0L296.4,598.4z
		 M299.7,603.4c1.5,0,2.2-0.6,2.2-1.9c0-1.2-0.8-1.7-2.3-1.6l-1.2,0l0.1,3.5L299.7,603.4z"/>
	<path class="st1" d="M305.5,598.3l1.9,0l0.2,10.2l-1.9,0L305.5,598.3z"/>
	<path class="st1" d="M310,598.2l3.2-0.1c2.3,0,4,0.7,4,3.1c0,2.3-1.6,3.3-3.8,3.4l-1.4,0l0.1,3.7l-1.9,0L310,598.2z M313.2,603.1
		c1.5,0,2.2-0.6,2.2-1.9c0-1.2-0.8-1.7-2.3-1.6l-1.2,0l0.1,3.5L313.2,603.1z"/>
	<path class="st1" d="M319.1,598l6.2-0.1l0,1.6l-4.3,0.1l0,2.6l3.7-0.1l0,1.6l-3.7,0.1l0.1,3l4.5-0.1l0,1.6l-6.3,0.1L319.1,598z"/>
	<path class="st1" d="M327.6,597.9l1.9,0l0.2,8.6l4.2-0.1l0,1.6l-6.1,0.1L327.6,597.9z"/>
	<path class="st1" d="M335.5,597.7l1.9,0l0.2,10.2l-1.9,0L335.5,597.7z"/>
	<path class="st1" d="M339.9,597.6l2,0l3.2,5.6c0.4,0.7,0.7,1.5,1.1,2.3l0.1,0c-0.1-1.1-0.3-2.3-0.3-3.5l-0.1-4.5l1.7,0l0.2,10.2
		l-2,0l-3.2-5.6c-0.4-0.7-0.7-1.5-1.1-2.3l-0.1,0c0.1,1.1,0.3,2.3,0.3,3.5l0.1,4.5l-1.7,0L339.9,597.6z"/>
	<path class="st1" d="M350.2,597.5l6.2-0.1l0,1.6l-4.3,0.1l0,2.6l3.7-0.1l0,1.6l-3.7,0.1l0.1,3l4.5-0.1l0,1.6l-6.3,0.1L350.2,597.5z
		"/>
	<path class="st1" d="M361.8,597.3l3.4-0.1c2.1,0,3.8,0.7,3.8,3c0,1.5-0.8,2.5-2,3l2.5,4.2l-2.1,0l-2.3-3.9l-1.5,0l0.1,4l-1.9,0
		L361.8,597.3z M365.1,602c1.4,0,2.1-0.6,2.1-1.8c0-1.2-0.8-1.5-2.2-1.5l-1.4,0l0.1,3.3L365.1,602z"/>
	<path class="st1" d="M371.1,597.1l6.2-0.1l0,1.6l-4.3,0.1l0,2.6l3.7-0.1l0,1.6l-3.7,0.1l0.1,3l4.5-0.1l0,1.6l-6.3,0.1L371.1,597.1z
		"/>
	<path class="st1" d="M379.5,596.9l3.2-0.1c2.3,0,4,0.7,4,3.1c0,2.3-1.6,3.3-3.8,3.4l-1.4,0l0.1,3.7l-1.9,0L379.5,596.9z
		 M382.8,601.9c1.5,0,2.2-0.6,2.2-1.9c0-1.2-0.8-1.7-2.3-1.6l-1.2,0l0.1,3.5L382.8,601.9z"/>
	<path class="st1" d="M388.2,601.8c-0.1-3.3,1.7-5.3,4.4-5.3c2.7,0,4.5,1.9,4.6,5.2c0.1,3.3-1.7,5.4-4.4,5.4
		C390.1,607.1,388.3,605.1,388.2,601.8z M395.3,601.7c0-2.3-1.1-3.6-2.7-3.6c-1.6,0-2.6,1.4-2.5,3.7c0,2.3,1.1,3.7,2.7,3.7
		C394.4,605.5,395.4,604,395.3,601.7z"/>
	<path class="st1" d="M399.2,596.6l3.4-0.1c2.1,0,3.8,0.7,3.8,3c0,1.5-0.8,2.5-2,3l2.5,4.2l-2.1,0l-2.3-3.9l-1.5,0l0.1,4l-1.9,0
		L399.2,596.6z M402.6,601.3c1.4,0,2.1-0.6,2.1-1.8c0-1.2-0.8-1.5-2.2-1.5l-1.4,0l0.1,3.3L402.6,601.3z"/>
	<path class="st1" d="M410.3,597.9l-2.9,0.1l0-1.6l7.7-0.1l0,1.6l-2.9,0.1l0.2,8.6l-1.9,0L410.3,597.9z"/>
</g>
<g class="st0">
	<g>
		<path class="st1" d="M254.9,235c-1.4,0-2.5-1.1-2.5-2.5v-10c0-1.4,1.1-2.5,2.5-2.5c1.4,0,2.5,1.1,2.5,2.5v10
			C257.4,233.9,256.3,235,254.9,235z M254.9,211c-1.4,0-2.5-1.1-2.5-2.5v-10c0-1.4,1.1-2.5,2.5-2.5c1.4,0,2.5,1.1,2.5,2.5v10
			C257.4,209.9,256.3,211,254.9,211z M299.3,197.4h-10c-1.4,0-2.5-1.1-2.5-2.5s1.1-2.5,2.5-2.5h10c1.4,0,2.5,1.1,2.5,2.5
			S300.7,197.4,299.3,197.4z M275.3,197.4h-10c-1.4,0-2.5-1.1-2.5-2.5s1.1-2.5,2.5-2.5h10c1.4,0,2.5,1.1,2.5,2.5
			S276.7,197.4,275.3,197.4z M307.3,191.4c-1.4,0-2.5-1.1-2.5-2.5v-10c0-1.4,1.1-2.5,2.5-2.5s2.5,1.1,2.5,2.5v10
			C309.8,190.3,308.7,191.4,307.3,191.4z M307.3,167.4c-1.4,0-2.5-1.1-2.5-2.5v-10c0-1.4,1.1-2.5,2.5-2.5s2.5,1.1,2.5,2.5v10
			C309.8,166.3,308.7,167.4,307.3,167.4z"/>
	</g>
	<g>
		<path class="st1" d="M254.9,240L254.9,240c-0.7,0-1.3-0.3-1.8-0.7l-9-9c-1-1-1-2.6,0-3.5c1-1,2.6-1,3.5,0l7.3,7.3l7.3-7.3
			c1-1,2.6-1,3.5,0c1,1,1,2.6,0,3.5l-9,9C256.2,239.7,255.6,240,254.9,240z"/>
	</g>
</g>
<g class="st0">
	<g>
		<path class="st1" d="M435.4,235c-1.4,0-2.5-1.1-2.5-2.5v-10c0-1.4,1.1-2.5,2.5-2.5s2.5,1.1,2.5,2.5v10
			C437.9,233.9,436.8,235,435.4,235z M435.4,211c-1.4,0-2.5-1.1-2.5-2.5v-10c0-1.4,1.1-2.5,2.5-2.5s2.5,1.1,2.5,2.5v10
			C437.9,209.9,436.8,211,435.4,211z M425,197.4h-10c-1.4,0-2.5-1.1-2.5-2.5s1.1-2.5,2.5-2.5h10c1.4,0,2.5,1.1,2.5,2.5
			S426.4,197.4,425,197.4z M401,197.4h-10c-1.4,0-2.5-1.1-2.5-2.5s1.1-2.5,2.5-2.5h10c1.4,0,2.5,1.1,2.5,2.5S402.4,197.4,401,197.4z
			 M383,191.4c-1.4,0-2.5-1.1-2.5-2.5v-10c0-1.4,1.1-2.5,2.5-2.5s2.5,1.1,2.5,2.5v10C385.5,190.3,384.4,191.4,383,191.4z M383,167.4
			c-1.4,0-2.5-1.1-2.5-2.5v-10c0-1.4,1.1-2.5,2.5-2.5s2.5,1.1,2.5,2.5v10C385.5,166.3,384.4,167.4,383,167.4z"/>
	</g>
	<g>
		<path class="st1" d="M435.4,240c-0.7,0-1.3-0.3-1.8-0.7l-9-9c-1-1-1-2.6,0-3.5c1-1,2.6-1,3.5,0l7.3,7.3l7.3-7.3c1-1,2.6-1,3.5,0
			c1,1,1,2.6,0,3.5l-9,9C436.7,239.7,436.1,240,435.4,240z"/>
	</g>
</g>
<g class="st0">
	<g>
		<path class="st1" d="M682.7,238.4c-1.4,0-2.5-1.1-2.5-2.5v-10c0-1.4,1.1-2.5,2.5-2.5s2.5,1.1,2.5,2.5v10
			C685.2,237.3,684,238.4,682.7,238.4z M682.7,214.4c-1.4,0-2.5-1.1-2.5-2.5v-10c0-1.4,1.1-2.5,2.5-2.5s2.5,1.1,2.5,2.5v10
			C685.2,213.3,684,214.4,682.7,214.4z M673.6,199.4h-10c-1.4,0-2.5-1.1-2.5-2.5s1.1-2.5,2.5-2.5h10c1.4,0,2.5,1.1,2.5,2.5
			S675,199.4,673.6,199.4z M649.6,199.4h-10c-1.4,0-2.5-1.1-2.5-2.5s1.1-2.5,2.5-2.5h10c1.4,0,2.5,1.1,2.5,2.5
			S651,199.4,649.6,199.4z M625.6,199.4h-3c-1.4,0-2.5-1.1-2.5-2.5v-7c0-1.4,1.1-2.5,2.5-2.5s2.5,1.1,2.5,2.5v4.5h0.5
			c1.4,0,2.5,1.1,2.5,2.5S627,199.4,625.6,199.4z M622.7,178.4c-1.4,0-2.5-1.1-2.5-2.5v-10c0-1.4,1.1-2.5,2.5-2.5s2.5,1.1,2.5,2.5
			v10C625.2,177.3,624,178.4,622.7,178.4z"/>
	</g>
	<g>
		<path class="st1" d="M682.7,244L682.7,244c-0.7,0-1.3-0.3-1.8-0.7l-9-9c-1-1-1-2.6,0-3.5c1-1,2.6-1,3.5,0l7.3,7.3l7.3-7.3
			c1-1,2.6-1,3.5,0c1,1,1,2.6,0,3.5l-9,9C684,243.7,683.3,244,682.7,244z"/>
	</g>
</g>
<g class="st0">
	<g>
		<path class="st1" d="M384.5,488.1c-1.4,0-2.5-1.1-2.5-2.5v-10c0-1.4,1.1-2.5,2.5-2.5s2.5,1.1,2.5,2.5v10
			C387,487,385.9,488.1,384.5,488.1z M384.5,464.1c-1.4,0-2.5-1.1-2.5-2.5v-10c0-1.4,1.1-2.5,2.5-2.5s2.5,1.1,2.5,2.5v10
			C387,463,385.9,464.1,384.5,464.1z M426.5,448.1h-10c-1.4,0-2.5-1.1-2.5-2.5s1.1-2.5,2.5-2.5h10c1.4,0,2.5,1.1,2.5,2.5
			S427.8,448.1,426.5,448.1z M402.5,448.1h-10c-1.4,0-2.5-1.1-2.5-2.5s1.1-2.5,2.5-2.5h10c1.4,0,2.5,1.1,2.5,2.5
			S403.8,448.1,402.5,448.1z M436.9,444.5c-1.4,0-2.5-1.1-2.5-2.5v-10c0-1.4,1.1-2.5,2.5-2.5s2.5,1.1,2.5,2.5v10
			C439.4,443.4,438.3,444.5,436.9,444.5z M436.9,420.5c-1.4,0-2.5-1.1-2.5-2.5v-8.5c0-1.4,1.1-2.5,2.5-2.5s2.5,1.1,2.5,2.5v8.5
			C439.4,419.4,438.3,420.5,436.9,420.5z"/>
	</g>
	<g>
		<path class="st1" d="M384.5,492.6c-0.7,0-1.3-0.3-1.8-0.7l-9-9c-1-1-1-2.6,0-3.5c1-1,2.6-1,3.5,0l7.3,7.3l7.3-7.3c1-1,2.6-1,3.5,0
			c1,1,1,2.6,0,3.5l-9,9C385.8,492.4,385.2,492.6,384.5,492.6z"/>
	</g>
</g>
<g class="st0">
	<g>
		<path class="st1" d="M307.3,492.6c-1.4,0-2.5-1.1-2.5-2.5v-10c0-1.4,1.1-2.5,2.5-2.5s2.5,1.1,2.5,2.5v10
			C309.8,491.5,308.7,492.6,307.3,492.6z M307.3,468.6c-1.4,0-2.5-1.1-2.5-2.5v-10c0-1.4,1.1-2.5,2.5-2.5s2.5,1.1,2.5,2.5v10
			C309.8,467.5,308.7,468.6,307.3,468.6z M299.3,452.6h-10c-1.4,0-2.5-1.1-2.5-2.5s1.1-2.5,2.5-2.5h10c1.4,0,2.5,1.1,2.5,2.5
			S300.7,452.6,299.3,452.6z M275.3,452.6h-10c-1.4,0-2.5-1.1-2.5-2.5s1.1-2.5,2.5-2.5h10c1.4,0,2.5,1.1,2.5,2.5
			S276.7,452.6,275.3,452.6z M254.9,449.1c-1.4,0-2.5-1.1-2.5-2.5v-10c0-1.4,1.1-2.5,2.5-2.5c1.4,0,2.5,1.1,2.5,2.5v10
			C257.4,447.9,256.3,449.1,254.9,449.1z M254.9,425.1c-1.4,0-2.5-1.1-2.5-2.5v-10c0-1.4,1.1-2.5,2.5-2.5c1.4,0,2.5,1.1,2.5,2.5v10
			C257.4,423.9,256.3,425.1,254.9,425.1z"/>
	</g>
	<g>
		<path class="st1" d="M263.9,421.1c-0.6,0-1.3-0.2-1.8-0.7l-7.3-7.3l-7.3,7.3c-1,1-2.6,1-3.5,0c-1-1-1-2.6,0-3.5l9-9
			c1-1,2.6-1,3.5,0l9,9c1,1,1,2.6,0,3.5C265.2,420.8,264.6,421.1,263.9,421.1z"/>
	</g>
</g>
</svg>
